<svg width="979" height="227" viewBox="0 0 979 227" fill="none" xmlns="http://www.w3.org/2000/svg">
<path d="M47.1047 136.974C46.619 138.426 48.5615 138.426 49.0471 139.878C48.0759 140.362 47.1047 140.362 46.619 140.846C44.191 139.394 43.2197 136.974 42.2485 134.554C41.7629 135.038 40.7917 136.006 39.8204 136.974C38.8492 134.554 38.8492 133.102 38.3636 130.682C35.9355 130.682 33.5074 130.682 31.565 130.682C30.5937 131.65 29.1369 133.102 27.68 134.554C27.1944 133.586 27.1944 133.102 26.7088 132.134C25.7376 130.682 24.7664 129.714 23.7951 128.262C22.8239 129.714 22.3383 131.166 21.8527 132.618C20.8814 132.618 20.3958 132.618 19.4246 132.618C18.939 131.65 18.4534 130.198 17.9678 128.746C16.5109 128.746 15.0541 128.746 14.0828 128.262C11.1691 125.842 8.74106 123.422 6.31299 121.486C6.31299 120.518 6.31299 120.034 6.31299 119.066C9.22668 118.098 12.1404 118.582 15.0541 118.582C15.5397 119.066 16.5109 120.034 17.4821 121.002C17.9677 119.066 17.9677 117.13 18.4534 115.194C19.9102 113.742 21.8527 114.71 23.3095 114.71C24.2807 114.226 24.7664 113.258 25.252 112.774C26.2232 113.258 26.7088 113.742 27.68 114.71C28.1657 112.29 28.1657 110.354 28.6513 108.902C32.0506 109.87 33.0218 114.226 36.4211 114.71C37.878 116.162 37.878 116.162 40.306 116.162C40.306 115.678 40.7917 115.678 40.7917 115.194C40.7917 111.806 40.7917 108.418 40.7917 105.514C39.8204 104.546 39.3348 104.062 38.8492 103.094C38.8492 101.642 38.8492 100.19 40.7917 100.19C42.7341 100.19 45.1622 103.578 47.5903 107.934C48.5615 107.934 49.5327 108.418 50.504 108.902C50.9896 108.902 50.9896 109.386 50.9896 109.386C50.9896 110.354 50.9896 110.838 50.9896 111.322C51.9608 112.29 52.932 113.258 53.9033 114.226C56.3313 113.258 56.817 110.354 58.2738 108.418C59.7306 105.998 62.6443 105.998 64.5868 105.03C65.0724 105.514 65.558 105.998 66.0436 106.482C67.9861 105.998 67.5005 104.546 67.0149 103.578C66.0436 102.126 64.5868 101.158 65.558 99.2217C67.5005 97.7697 69.9286 98.7377 72.3566 98.7377C73.3279 98.2537 73.8135 97.2857 74.2991 96.8017C76.2416 95.8337 77.2128 98.2537 78.6696 98.7377C79.6409 98.2537 80.1265 97.2857 81.0977 96.8017C82.0689 97.2857 83.0402 98.2537 84.497 98.7377C84.9826 98.2537 85.9539 97.2857 86.9251 96.3177C86.9251 95.8337 86.4395 95.3497 86.4395 94.8657C83.5258 92.4456 79.6409 90.9936 75.7559 90.5096C74.2991 88.5736 75.2703 86.1535 74.7847 83.7335C73.3279 83.2495 71.871 82.2814 70.8998 81.7974C70.8998 80.8294 70.8998 80.3454 70.8998 79.8614C73.8135 75.9893 79.1553 75.9893 82.5546 72.6013C86.4395 72.6013 90.81 72.6013 94.6949 72.6013C95.1805 72.1173 95.6662 71.6333 96.6374 70.6652C101.494 70.6652 106.35 70.6652 111.206 70.6652C112.177 69.6972 112.663 69.2132 113.148 68.7292C116.062 67.7612 119.947 69.2132 122.861 67.2772C119.461 65.8252 116.548 66.7932 113.634 66.3092C110.72 66.3092 107.321 66.3092 104.407 66.3092C101.494 66.3092 98.0942 66.3092 95.1805 66.3092C92.2669 66.3092 89.3532 66.3092 86.4395 66.3092C85.4682 65.3411 84.9826 64.8571 84.497 64.3731C72.3566 64.3731 59.7306 64.3731 47.5903 64.3731C46.619 63.8891 46.1334 62.9211 45.1622 62.4371C39.8204 62.4371 34.4787 62.4371 28.6513 62.4371C28.1657 61.9531 27.68 61.4691 26.7088 60.5011C24.7664 60.5011 22.3383 60.5011 20.3958 60.5011C19.4246 59.533 18.939 59.049 18.4534 58.565C16.9965 58.565 15.5397 58.081 13.5972 58.081C13.5972 57.113 13.1116 56.145 12.626 54.693C11.6548 54.209 10.1979 52.7569 8.74106 51.7889C9.22668 47.9168 12.626 46.9488 14.0828 44.5288C15.5397 44.5288 16.9965 44.5288 17.9678 44.5288C20.3958 43.5608 20.8814 43.0768 21.3671 42.5928C23.7951 42.5928 25.7376 42.5928 27.68 42.5928C28.6513 43.5608 29.1369 44.0448 30.1081 44.5288C30.5937 43.0768 30.5937 42.1087 30.5937 41.1407C32.5362 39.2047 34.9643 40.6567 37.3924 40.1727C38.3636 41.1407 38.8492 41.6247 39.8204 42.5928C40.7917 41.1407 41.7629 39.2047 42.7341 37.2687C40.7917 35.3326 38.8492 33.3966 36.9067 31.4606C38.8492 29.0405 41.2773 27.1045 43.2197 25.1684C45.1622 24.2004 47.5903 24.6844 50.0183 24.2004C50.504 23.7164 51.4752 23.2324 52.4464 22.2644C54.8745 22.2644 57.7882 22.2644 60.2163 22.2644C61.1875 21.2964 61.6731 20.8124 62.1587 20.3284C67.9861 20.3284 74.7847 20.3284 80.6121 20.3284C82.0689 19.3603 82.5546 19.3603 83.0402 18.3923C89.8388 18.3923 96.6374 18.3923 103.436 18.3923C104.407 17.9083 104.893 16.9403 105.864 16.4563C115.576 16.4563 124.803 16.4563 134.515 16.4563C135.001 15.9723 135.972 15.0043 136.458 14.5203C137.429 15.0043 137.915 15.9723 138.886 16.9403C139.857 16.4563 140.828 15.9723 142.771 15.0043C143.256 15.0043 143.742 15.4883 144.713 16.4563C145.199 15.9723 145.685 15.0043 146.656 14.5203C147.141 15.0043 148.113 15.4883 148.598 16.4563C149.084 15.9723 149.569 15.4883 150.055 15.0043C150.541 15.0043 150.541 14.5203 151.026 14.5203C164.624 14.5203 178.221 14.5203 191.818 14.5203C192.304 14.0362 192.789 13.5522 193.275 13.0682C193.76 13.0682 193.76 12.5842 194.246 12.5842C213.185 12.5842 232.61 12.5842 251.549 12.5842C252.034 12.1002 252.52 11.6162 253.491 10.6482C263.689 10.6482 274.372 10.6482 284.57 10.6482C285.056 9.68017 285.056 9.19616 285.542 8.71215C290.883 8.71215 296.225 8.22814 301.567 8.22814L302.053 7.74414C294.283 6.77612 291.369 6.77612 285.542 9.19616C284.57 9.19616 283.599 9.19616 282.628 9.19616C281.657 8.71215 281.171 7.74414 280.685 7.26013C278.257 6.29211 277.772 8.71215 275.829 9.19616C274.858 8.71215 273.887 8.22814 271.944 7.26013C265.146 7.26013 257.376 7.26013 249.606 7.26013C249.121 7.74414 248.635 8.22814 247.664 9.19616C230.182 9.19616 211.728 9.19616 194.246 9.19616C193.275 10.1642 192.789 10.6482 192.304 11.1322C189.875 11.1322 187.447 11.6162 185.019 10.6482C185.019 9.68017 185.019 8.71215 185.019 8.22814C185.505 7.74414 185.505 7.26013 185.991 7.26013C197.16 7.26013 207.843 7.26013 218.527 7.26013C219.498 6.77612 219.984 5.8081 220.955 5.32409C221.44 5.8081 222.412 6.77612 222.897 7.26013C223.383 5.8081 223.869 5.32409 224.354 4.84009C224.84 5.32409 225.811 5.8081 226.782 6.29211C228.239 6.29211 230.667 6.29211 233.095 6.29211C234.066 6.29211 234.552 3.87207 236.98 4.35608C237.466 4.84009 238.437 5.32409 238.923 6.29211C239.408 5.8081 240.379 4.84009 240.865 4.35608C264.66 4.35608 288.941 4.35608 312.736 4.35608C313.707 3.87207 314.193 2.90405 314.679 2.42004C315.164 2.90405 315.65 3.38806 316.621 4.35608C317.107 3.87207 318.078 3.38806 319.049 2.90405C321.477 2.90405 324.391 2.90405 327.305 2.90405C327.79 3.38806 328.276 3.87207 329.247 4.35608C329.733 3.87207 330.704 3.38806 331.189 2.42004C331.675 2.90405 332.646 3.38806 333.132 4.35608C333.618 3.87207 334.103 3.38806 334.589 2.90405C335.074 2.90405 335.56 2.42004 336.531 2.42004C359.355 2.42004 382.179 2.42004 405.003 2.42004C405.974 1.93603 406.46 0.968017 406.945 0.484009C407.917 0.968017 408.402 1.93603 408.888 2.42004C411.316 3.38806 411.802 0.968017 414.23 0.484009C414.715 0.968017 416.172 1.45203 417.143 2.42004C417.629 1.93603 418.115 1.45203 419.086 0.968017C492.414 0.968017 566.227 0.968017 639.069 0.968017C639.555 1.45203 640.041 1.93603 641.012 2.90405C641.497 2.42004 642.469 1.45203 642.954 0.968017C644.897 0.968017 646.839 0.968017 649.267 0.968017C650.239 1.45203 650.724 2.42004 651.21 2.90405C652.667 2.90405 654.123 2.90405 655.095 2.90405C656.066 2.42004 656.552 1.45203 657.037 0.968017C661.893 0.968017 666.749 0.968017 671.606 0.968017C672.091 1.45203 672.577 1.93603 673.062 2.42004C674.034 1.93603 675.005 1.45203 676.462 0.484009C677.433 0.968017 678.404 1.93603 679.375 2.42004C679.861 1.93603 680.832 1.45203 681.318 0.484009C682.775 0.484009 683.746 0.484009 685.203 0.484009C685.688 0.968017 686.66 1.93603 687.145 2.42004C688.117 1.93603 688.602 0.968017 689.573 0C690.545 0.484009 691.516 0.968017 693.458 1.93603C693.944 1.45203 694.915 0.968017 696.372 0C697.343 0.484009 698.314 1.45203 699.286 1.93603C700.257 1.45203 701.228 0.484009 702.199 0C703.171 0.968017 704.142 1.45203 705.113 2.42004C706.084 1.93603 706.57 0.968017 707.541 0C708.512 0.484009 709.484 0.968017 711.912 2.42004C719.196 2.42004 727.451 2.42004 735.707 2.42004C736.192 3.38806 736.192 3.87207 736.678 4.35608C734.736 4.35608 733.279 4.35608 731.822 4.35608C730.851 4.84009 730.365 5.8081 729.879 6.29211C729.394 5.8081 728.908 5.32409 728.423 4.84009C713.369 3.87207 689.088 3.87207 681.803 5.32409L682.289 5.8081C682.775 5.8081 683.746 6.29211 684.232 6.29211C696.372 6.29211 708.027 6.29211 719.681 6.29211C720.167 6.77612 720.653 7.26013 721.624 8.22814C728.423 8.22814 735.221 8.22814 742.02 8.22814C742.991 9.19616 743.477 9.68017 743.962 10.1642C752.703 10.1642 761.93 10.1642 770.671 10.1642C771.642 11.1322 772.128 11.6162 772.614 12.1002C782.811 12.1002 793.495 12.1002 803.207 12.1002C804.178 13.0682 804.664 13.5522 805.15 14.0362C809.035 14.0362 813.405 14.0362 817.29 14.0362C818.261 14.5203 818.747 15.4883 819.718 15.9723C822.632 15.9723 825.06 15.9723 827.974 15.9723C828.945 16.4563 829.43 17.4243 830.402 17.9083C835.258 17.9083 840.114 17.9083 844.485 17.9083C844.97 18.3923 845.456 18.8763 846.427 19.8443C849.826 20.3284 853.226 19.8443 857.111 20.3284C857.596 20.8124 858.082 21.2964 859.053 22.2644C863.909 22.2644 868.765 22.2644 873.621 22.2644C874.593 23.2324 875.078 23.7164 875.564 24.2004C876.05 23.7164 877.021 23.2324 877.506 22.2644C877.992 22.7484 878.963 23.2324 879.449 24.2004C882.848 24.2004 886.247 24.2004 889.647 24.2004C890.618 25.1684 891.104 26.1365 892.075 27.1045C892.075 27.1045 891.589 28.0725 891.104 28.0725C887.219 28.0725 882.848 28.0725 878.963 28.0725C878.478 28.0725 878.478 28.5565 878.478 28.5565C878.963 30.0085 880.42 29.5245 881.391 30.0085C882.363 30.9765 883.819 32.4286 885.276 33.8806C885.762 33.3966 886.733 32.9126 887.704 31.9446C891.104 31.9446 894.503 31.9446 897.902 31.9446C898.388 32.4286 899.359 33.3966 899.845 33.8806C901.787 33.8806 903.73 33.8806 905.672 33.8806C906.643 34.3646 907.129 35.3326 908.1 35.8166C909.557 35.8166 911.014 35.8166 911.985 35.8166C912.956 36.3006 913.442 37.2687 914.413 37.7527C916.356 37.7527 918.298 37.7527 920.241 37.7527C921.212 39.6887 922.183 41.1407 923.154 43.0768C922.669 43.5608 922.183 44.0448 921.212 45.0128C922.669 46.4648 924.611 45.4968 926.068 45.9808C927.525 44.5288 928.982 43.0768 930.438 42.1087C931.895 42.1087 933.352 42.1087 934.323 42.1087C936.751 44.0448 934.809 45.4968 933.352 47.4328C935.78 48.8849 938.694 48.4008 940.636 47.9168C941.608 47.4328 942.093 46.9488 943.064 45.9808C943.064 47.4328 943.55 48.4008 943.55 49.3689C942.093 49.8529 941.122 50.3369 939.665 50.8209C940.151 51.7889 940.636 52.7569 941.122 53.7249C939.665 55.177 937.723 53.7249 936.266 54.693C935.295 53.7249 934.809 53.2409 933.838 52.2729C933.352 53.2409 933.352 54.209 932.867 55.177C935.295 56.629 937.723 57.113 939.18 59.533C937.723 60.0171 936.751 60.0171 935.78 60.9851C934.809 61.9531 933.838 62.9211 932.381 62.4371C929.953 60.9851 931.895 59.049 930.924 57.113C929.953 56.145 928.496 56.629 927.039 56.629C927.039 55.177 927.039 53.2409 927.039 51.3049C926.068 50.8209 925.582 50.8209 924.611 50.3369C922.183 51.3049 921.697 54.209 918.784 54.209C916.356 54.693 915.384 56.145 914.413 57.597C914.413 60.9851 918.298 60.9851 918.298 63.8891C917.327 63.8891 916.356 63.8891 914.899 63.8891C914.413 64.8571 914.413 65.8252 913.927 66.3092C913.442 67.2772 912.956 68.2452 911.985 69.2132C912.956 70.1812 913.927 71.1493 914.899 71.6333C915.87 70.6652 916.841 69.6972 917.812 68.7292C917.812 66.7932 917.812 65.3411 917.812 63.8891C918.298 63.8891 918.784 64.3731 919.755 64.8571C919.755 66.7932 919.755 68.7292 919.755 71.1492C919.755 72.1173 916.841 72.6013 918.298 75.5053C918.298 75.5053 919.269 76.4733 920.241 77.4414C922.183 76.9574 922.669 74.5373 925.582 74.0533C925.582 74.0533 927.039 74.0533 928.496 74.0533C929.467 73.5693 929.953 72.6013 930.924 72.1173C931.895 73.5693 932.867 74.5373 933.838 75.9893C934.809 77.9254 935.295 79.8614 936.751 81.7974C937.723 83.2495 939.665 84.7015 941.122 86.1535C943.064 86.1535 945.007 86.1535 947.435 86.1535C948.406 87.6055 949.863 89.0576 950.834 90.0256C952.291 90.0256 952.777 90.0256 953.748 90.0256C954.234 90.9936 954.234 91.4776 954.719 92.9296C953.262 93.8977 951.32 95.3497 950.349 96.3177C950.349 98.2537 950.349 99.7057 950.349 101.158C949.863 102.126 948.892 102.61 948.406 103.094C948.892 104.062 949.863 104.546 950.349 105.03C950.834 106.966 949.863 108.418 951.32 109.87C951.805 108.418 952.777 106.966 953.262 105.514C954.234 107.45 955.205 108.902 956.176 110.838C955.69 111.322 955.205 111.806 954.719 112.774C955.205 113.258 956.176 114.226 956.662 114.71C956.662 116.162 956.662 117.614 956.662 118.582C956.176 119.066 955.69 119.55 955.205 119.55C946.949 119.55 938.694 119.55 931.41 119.55C930.438 120.518 929.953 121.002 928.982 121.486C926.554 121.486 923.154 121.486 920.241 121.486C920.726 123.906 922.669 124.39 923.64 126.326C923.154 126.81 923.154 127.294 922.669 127.294C917.327 127.294 911.985 127.294 906.158 127.294C905.672 128.746 904.701 130.198 903.73 131.65C900.816 130.198 898.388 129.23 895.96 127.778C893.532 129.23 890.618 130.198 887.704 131.65C886.733 129.714 886.247 128.262 885.762 127.294C884.791 127.294 884.305 127.294 883.819 127.294C881.877 128.746 883.334 130.198 882.848 132.134C882.363 133.102 881.391 134.07 880.42 135.038C878.963 135.038 877.506 135.522 875.564 135.522C875.078 136.006 874.593 136.006 874.593 136.49C874.593 138.91 874.593 141.814 874.593 144.235C874.107 145.203 873.136 145.687 872.65 146.171C873.621 147.139 874.593 148.107 875.564 149.075C876.05 148.591 877.021 147.623 877.506 147.139C878.963 147.139 880.906 147.139 882.363 147.139C882.848 148.107 883.334 149.075 884.305 149.075C885.762 149.075 887.704 149.559 888.676 148.107C887.219 146.171 884.791 147.139 882.363 147.139C883.334 145.687 884.305 143.751 885.276 141.814C885.762 141.814 887.219 141.33 888.19 140.846C888.19 139.394 888.676 137.942 888.676 136.006C890.132 134.554 892.075 135.522 893.532 135.038C894.503 135.522 894.989 136.49 895.96 136.974C897.417 136.974 898.873 136.974 900.33 136.974C900.816 137.942 900.816 138.426 901.302 139.878C898.873 141.814 896.445 143.751 894.989 145.203C894.989 146.655 894.989 147.623 894.989 148.107C896.445 149.559 898.388 149.075 899.845 149.075C901.302 149.075 902.758 149.075 903.73 149.075C905.186 149.075 907.129 149.075 908.586 149.075C909.071 146.171 907.129 147.623 905.186 145.203C905.672 146.171 905.186 144.719 904.701 143.751C904.701 143.267 903.73 143.267 903.244 142.783C903.244 140.362 903.244 137.942 903.244 136.006C902.758 135.522 901.787 134.554 900.816 133.586C902.273 133.102 903.244 133.102 904.701 133.102C905.186 134.554 905.186 135.522 905.186 136.49C906.643 137.942 908.586 139.394 910.043 141.33C911.014 141.33 911.985 141.814 913.442 141.814C913.442 144.235 913.442 146.655 913.442 148.107C914.899 149.559 915.87 150.527 916.356 151.495C917.812 151.495 919.269 151.495 920.726 151.495C923.154 149.559 920.726 146.655 922.183 144.235C922.669 144.235 923.154 143.751 924.125 143.751C924.125 145.203 924.125 147.139 924.125 148.591C924.611 149.075 925.582 150.043 926.068 151.011C924.611 152.463 923.154 153.431 921.212 154.883C921.697 155.851 922.669 156.819 923.154 158.271C923.64 159.239 924.125 160.691 924.611 161.659C926.553 162.143 927.039 162.143 928.01 160.207C928.496 160.207 929.467 159.723 929.467 159.723C929.953 158.755 928.982 158.271 928.01 158.271C928.01 156.335 930.438 155.851 930.924 153.915C932.381 155.367 933.838 156.819 935.295 158.271C936.751 158.271 938.208 158.271 939.665 158.271C939.665 159.239 940.151 160.691 940.151 161.659C934.323 162.627 929.953 164.563 926.554 168.435C924.125 167.467 922.669 166.499 921.212 166.015C917.812 168.435 921.697 172.307 918.784 174.243C917.812 173.275 916.841 172.307 915.87 171.339C916.841 169.887 918.784 169.403 917.327 166.499C914.899 165.531 911.985 166.499 908.586 166.015C907.615 166.983 906.643 167.951 905.672 168.435C905.186 172.307 908.586 172.791 909.071 175.211C908.586 175.695 907.615 176.663 907.129 177.631C903.244 180.051 900.33 174.727 895.474 176.663C895.474 176.663 894.503 177.147 893.046 178.115C892.075 177.147 891.104 176.663 889.647 175.695C887.704 175.695 885.762 175.695 883.819 175.695C882.848 176.663 881.877 177.147 881.391 177.631C878.478 177.631 877.992 174.243 875.078 176.179C875.078 176.663 874.593 177.631 874.593 178.599C875.564 179.567 876.535 180.535 877.992 181.503C880.906 182.955 882.848 180.051 885.762 179.567C886.733 180.535 887.219 181.019 888.19 181.503C888.676 181.019 889.647 180.051 890.132 179.567C893.046 179.083 894.503 183.439 898.873 181.019C898.388 181.019 899.359 180.535 900.33 180.051C901.302 180.535 902.273 181.019 903.73 181.987C904.701 181.503 905.672 180.535 907.129 179.567C907.615 180.535 908.586 181.503 909.557 182.471C908.586 182.955 907.615 183.439 906.158 183.923C906.643 185.375 908.1 184.891 909.071 185.375C910.043 185.859 910.528 186.343 911.014 186.827C911.499 186.343 911.985 185.859 912.956 184.891C913.442 185.375 914.413 185.859 915.384 186.827C917.812 186.827 920.726 186.827 925.097 186.827C923.64 187.311 916.356 189.247 915.87 189.247C917.327 190.215 918.784 190.699 920.241 191.183C918.784 193.603 915.87 191.183 913.927 193.603C917.327 194.571 920.726 194.087 924.125 194.087C927.039 194.087 929.953 193.603 933.838 195.055C929.467 196.507 926.554 195.539 923.64 196.023C922.183 196.991 921.212 197.959 919.755 198.927C923.64 201.348 927.039 198.927 930.438 200.864C929.953 201.832 929.467 202.316 928.496 203.284C929.953 203.768 931.41 204.736 932.381 205.22C932.381 206.188 932.381 206.672 932.381 207.156C930.924 208.124 928.982 208.608 926.554 210.06C925.582 210.06 923.154 210.06 921.212 210.06C920.24 210.544 919.755 211.512 918.784 211.996C911.985 211.996 905.186 211.996 898.388 211.996C897.417 212.48 896.931 213.448 895.96 213.932C881.391 213.932 867.309 213.932 852.74 213.932C852.254 214.416 851.769 214.9 850.798 215.868C844.97 216.352 838.657 215.868 831.859 215.868C831.373 216.352 830.887 216.836 829.916 217.804C815.833 217.804 801.265 217.804 786.696 217.804C785.725 218.772 785.24 219.256 784.754 219.74C759.988 219.74 735.221 219.74 710.94 219.74C709.969 220.708 709.484 221.192 708.998 221.676C634.699 221.676 559.429 221.676 485.129 221.676C484.158 222.644 483.673 223.128 483.187 223.612C461.334 223.612 439.482 223.612 417.629 223.612C417.143 223.128 416.172 222.644 415.686 221.676C414.715 222.16 413.744 223.128 412.773 224.096C411.316 223.128 410.345 222.644 409.374 221.676C343.815 221.676 278.257 221.676 212.214 221.676C211.728 221.192 211.243 220.708 210.271 219.74C199.588 219.74 188.419 219.74 177.249 219.74C176.278 218.772 175.793 218.288 175.307 217.804C171.422 217.804 167.052 217.804 163.167 217.804C162.195 216.836 161.71 216.352 161.224 215.868C156.368 215.868 151.998 215.868 146.656 215.868C145.199 213.932 143.256 211.512 141.314 209.576C137.915 209.576 135.001 209.576 132.087 209.576C129.659 207.156 131.602 206.188 133.059 204.736C133.059 203.284 133.059 202.316 133.059 200.864C135.487 198.927 136.943 195.055 140.828 195.539C140.343 193.603 138.886 192.151 137.915 191.667C135.972 191.183 135.001 190.699 135.001 188.763C135.001 187.311 133.059 186.343 132.087 185.375C128.202 184.891 129.659 187.795 127.717 189.247C127.231 188.763 126.26 188.279 125.289 187.311C123.346 187.311 121.404 187.311 119.461 187.311C118.49 187.795 118.004 189.731 116.062 189.247C116.062 188.763 115.576 187.795 115.576 187.795C114.12 187.311 114.12 188.279 114.12 189.247C112.663 189.247 112.177 189.731 112.177 190.699C112.177 192.151 112.177 193.119 114.12 193.119C114.12 193.603 114.605 194.571 114.605 194.571C117.519 194.571 119.461 198.443 123.832 196.507C123.832 196.507 125.289 195.055 126.26 194.087C125.289 193.119 124.803 192.151 123.832 191.183C125.289 190.699 126.26 190.699 126.746 190.699C129.174 192.635 126.746 195.055 127.717 197.475C128.202 198.443 129.174 199.411 129.659 200.864C127.717 200.864 125.774 200.864 124.803 200.864C120.918 204.252 126.746 205.22 125.289 208.124C122.861 209.576 122.861 209.576 120.433 207.64C119.461 208.124 118.49 208.608 117.033 209.576C116.062 209.092 114.605 208.124 112.663 207.156C111.691 207.64 110.72 208.608 109.263 209.092C108.778 208.608 108.292 207.64 108.292 207.156C108.778 205.22 110.235 203.768 112.177 203.284C112.663 204.736 112.177 206.188 114.12 204.736C113.634 204.252 113.148 203.768 112.177 203.284C113.148 200.38 110.235 198.443 109.263 195.539C108.778 194.571 108.292 193.119 107.321 191.667C106.835 191.667 105.378 191.183 104.407 190.699C103.436 189.731 102.465 189.247 101.008 189.247C99.0655 187.311 97.123 185.375 95.1805 183.439C94.6949 183.923 93.7237 184.407 93.2381 184.891C91.2956 185.375 88.8676 185.859 86.9251 183.439C84.9826 183.439 83.0402 183.439 80.6121 183.439C80.1265 183.923 79.1553 184.407 78.184 185.375C77.2128 184.407 76.7272 183.439 75.2703 181.987C75.2703 181.503 75.2703 180.051 75.2703 178.115C73.8135 177.147 72.3566 176.179 70.8998 175.211C70.8998 173.275 70.8998 171.823 70.8998 169.887C68.9573 168.435 66.5293 166.499 64.5868 164.563C65.0724 163.111 65.558 162.143 65.558 161.175C66.5293 162.143 67.0149 162.627 67.9861 163.111C68.4717 162.627 69.4429 161.659 69.9286 161.175C70.8998 162.143 71.871 163.111 72.8423 164.079C72.8423 164.563 72.8423 165.531 72.8423 166.015C74.2991 167.467 76.2416 169.403 77.6984 170.855C78.6696 170.371 79.1553 168.435 80.6121 168.919C80.6121 170.855 82.5546 171.339 83.5258 172.791C84.0114 173.275 85.4683 172.791 85.9539 172.791C87.4107 169.887 85.9539 167.951 84.9826 165.531C86.4395 164.079 88.3819 165.047 89.8388 165.047C91.2956 162.627 91.7812 159.239 96.1518 158.271C93.7237 157.303 92.7525 157.303 91.2956 156.819C90.81 155.851 90.3244 154.399 89.8388 153.431C89.3532 153.915 88.3819 154.399 88.3819 154.399C88.3819 155.851 88.3819 156.819 88.3819 158.271C86.9251 160.207 84.9826 158.755 83.5258 159.239C83.0402 158.755 82.0689 157.787 81.0977 157.303C78.184 157.303 75.7559 157.303 72.8423 157.303C71.871 156.819 71.3854 155.851 70.8998 155.367C69.9286 155.851 69.4429 156.819 68.9573 157.303C67.5005 155.851 66.5293 153.915 65.0724 153.915C70.8998 156.819 69.9286 154.883 67.9861 154.883C67.0149 154.883 66.0436 154.883 64.5868 154.883C64.1012 155.367 63.13 156.335 62.1587 156.819C61.6731 156.819 60.7019 156.819 60.2163 156.819C59.7306 156.819 58.7594 156.819 58.2738 156.819C57.7882 156.819 57.7882 157.303 57.3026 157.303C55.3601 158.271 53.4177 159.239 51.4752 160.691C50.9896 160.207 50.504 159.723 50.0183 159.239C48.0759 159.239 46.1334 159.239 44.6766 159.239C42.2485 157.787 40.306 156.819 38.3636 155.851C40.306 153.915 43.2197 152.463 44.191 150.043C45.1622 147.623 46.1334 146.171 48.0759 144.719C50.504 144.235 50.9896 145.687 50.9896 147.623C51.9608 148.591 52.932 149.559 53.9033 150.527C55.8457 150.527 58.2738 150.527 60.7019 150.527C61.1875 149.075 61.6731 148.107 62.1587 146.655C63.13 147.623 63.6156 148.107 64.5868 148.591C66.5293 148.591 68.4717 148.591 70.8998 148.591C71.871 147.623 72.8422 146.655 73.8135 145.687C72.3566 145.203 71.3854 144.235 69.9286 143.751C70.4142 142.299 72.3566 142.298 71.871 140.362C75.2703 140.846 77.2128 138.426 79.6409 137.942C79.1552 136.49 78.184 134.554 77.6984 133.102C77.6984 132.618 76.7272 132.618 76.2416 132.618C75.7559 131.166 76.2416 129.714 74.2991 131.166C74.7847 131.65 75.2703 132.134 76.2416 132.618C76.2416 133.102 76.2416 134.07 76.2416 135.522C74.7847 136.49 73.3279 137.942 72.3566 139.394C72.3566 139.394 72.3566 139.878 72.3566 140.362C70.8998 140.362 68.9573 140.362 67.0149 140.362C66.5293 141.33 66.0436 142.783 66.0436 143.751C64.1012 144.719 62.1587 144.719 60.2163 143.751C60.7019 143.267 61.1875 142.298 62.1587 141.814C61.6731 140.362 59.7306 139.878 60.2163 137.942C60.7019 137.458 61.6731 136.49 62.1587 136.006C62.1587 134.554 62.1587 132.618 62.1587 131.166C62.6443 131.166 63.6156 131.166 64.1012 130.682C64.5868 132.134 64.1012 133.586 66.0436 132.134C65.558 131.65 65.0724 131.166 64.1012 130.682C65.0724 129.714 65.558 128.746 66.0436 127.778C63.6156 125.358 61.1875 123.422 58.7594 120.518C57.3026 122.938 58.2738 125.842 57.3026 127.778C56.817 128.746 55.8457 129.714 55.8457 131.166C55.8457 132.134 56.3313 133.102 57.7882 132.618C57.3026 134.554 58.2738 136.49 56.817 138.426C56.3313 137.942 55.3601 137.458 54.3889 136.49C53.9033 136.974 52.932 137.458 52.4464 138.426C51.9608 136.974 50.9896 136.006 50.504 134.554C49.0471 135.522 48.0759 136.006 47.1047 136.974C46.619 135.522 47.1047 134.07 45.1622 135.522C45.6478 136.006 46.1334 136.49 47.1047 136.974ZM868.28 146.655C869.737 146.171 871.679 146.171 870.222 144.719C869.737 145.203 869.251 145.687 869.737 146.171C868.28 146.655 866.337 146.655 867.794 148.107C867.794 148.107 868.28 147.623 868.28 146.655ZM100.037 102.126C100.522 103.578 100.522 105.03 101.979 104.062C101.494 103.578 101.008 103.094 100.522 103.578C100.037 102.126 100.037 100.674 98.5798 101.642C99.0655 101.642 99.5511 102.126 100.037 102.126ZM880.906 66.3092C882.362 65.8252 884.305 67.2772 884.791 65.3411C882.363 64.3731 882.362 64.3731 880.906 66.3092C881.391 66.7932 880.906 66.3092 880.906 66.3092C879.934 66.7932 879.449 66.7932 878.963 67.2772L879.449 67.7612C880.42 67.7612 880.906 67.2772 880.906 66.3092ZM86.4395 105.03C85.9539 103.578 85.9539 102.126 84.497 103.094C84.9826 103.578 85.4682 104.062 86.4395 104.062C86.4395 105.514 86.4395 107.45 86.4395 108.902C88.3819 109.87 90.3244 110.838 92.2669 111.806C92.2669 109.87 92.2669 108.418 92.2669 106.482C91.2956 105.514 90.3244 104.546 89.3532 103.578C87.8963 104.546 86.9251 104.546 86.4395 105.03ZM102.465 174.727C105.864 174.243 103.436 178.115 105.864 178.599C107.321 178.115 109.263 179.083 110.72 177.631C110.72 177.147 110.72 176.179 111.206 175.695C109.749 172.791 106.35 172.307 103.436 170.371C102.465 172.307 102.465 173.275 102.465 174.727C100.522 175.695 100.522 175.695 101.494 178.599C103.436 177.631 101.979 176.179 102.465 174.727ZM124.317 96.8017C126.26 95.8337 128.202 94.3817 129.659 94.8657C132.087 94.8657 133.059 93.4136 134.515 92.9296C135.001 93.4136 135.487 93.8977 135.972 94.3817C143.742 94.3817 151.512 94.3817 159.282 94.3817C160.253 93.4136 161.224 92.4456 162.195 91.4776C161.71 90.5096 161.71 89.5416 161.224 89.0576C160.253 89.0576 159.767 89.0576 158.796 89.0576C158.311 89.5416 157.339 90.5096 156.368 90.9936C146.17 90.9936 135.972 90.9936 125.774 90.9936C124.803 92.4456 122.861 92.9296 122.375 94.8657C123.346 95.3497 123.832 95.8337 124.317 96.8017ZM107.807 98.7377C110.235 94.8657 113.634 97.2857 116.548 95.8337C118.004 94.8657 119.947 94.3817 121.404 93.4136C120.918 92.4456 120.918 91.4776 120.433 90.5096C118.976 91.4776 117.519 91.9616 116.548 92.9296C115.576 91.9616 114.605 91.4776 114.12 90.5096C112.177 90.5096 110.235 90.5096 108.292 90.5096C107.321 90.9936 106.835 91.9616 106.35 92.4456C105.378 91.9616 104.893 91.4776 104.407 90.9936C102.95 91.9616 101.979 92.4456 101.008 92.9296C100.037 91.9616 99.0655 91.4776 98.5798 90.9936C97.6086 91.4776 96.6374 92.4456 95.6662 92.4456C94.2093 92.9296 93.2381 92.9296 91.7812 92.9296C91.7812 92.9296 91.7812 93.4136 91.2956 93.4136C92.2669 94.3817 93.2381 95.3497 94.2093 96.3177C95.6662 96.3177 97.123 96.3177 98.0942 96.3177C99.0655 96.8017 99.5511 97.7697 100.037 98.2537C101.008 97.7697 101.494 96.8017 102.465 96.3177C103.922 96.8017 105.864 95.8337 107.807 98.7377ZM126.746 163.111C124.803 164.079 123.832 164.563 122.375 165.047C120.433 166.015 118.976 163.595 117.033 163.111C117.033 164.079 116.548 165.047 116.548 165.531C118.004 166.983 119.461 167.951 120.433 169.403C120.918 170.371 121.404 171.823 121.889 173.275C123.832 173.275 125.289 173.275 126.746 173.275C127.231 174.727 127.717 175.695 127.717 176.663C129.174 175.695 130.63 175.211 131.602 174.243C131.602 171.823 131.602 170.855 131.116 169.887C129.174 167.467 126.746 166.015 126.746 163.111ZM894.503 84.7015C893.046 85.1855 891.104 84.2175 889.161 85.6695C890.132 87.1215 888.19 89.0576 890.132 90.5096C892.075 90.5096 894.017 90.5096 895.96 90.5096C896.931 90.0256 897.417 89.0576 897.902 88.5736C898.873 89.0576 899.359 90.0256 900.33 90.5096C901.787 90.5096 903.244 90.5096 904.215 90.0256C904.701 90.0256 904.701 89.5416 905.186 89.0576C902.758 87.1215 901.787 84.2175 898.388 83.7335C897.417 84.7015 896.931 85.1855 895.96 85.6695C895.96 85.6695 894.989 85.1855 894.503 84.7015ZM136.458 170.855C138.886 170.371 141.314 171.339 143.256 170.371C142.771 169.403 141.8 168.435 141.314 167.467C140.828 166.015 141.8 164.079 140.343 163.111C137.915 163.595 135.972 162.627 133.544 163.595C133.544 165.047 133.544 166.499 133.544 167.951C134.515 168.919 135.487 169.887 136.458 170.855ZM874.593 137.942C874.593 135.038 871.679 137.942 871.193 136.006C870.708 135.038 870.222 133.586 870.222 132.618C868.28 133.102 866.823 132.134 864.88 133.586C864.88 135.038 864.88 136.49 865.366 137.942C865.366 138.426 865.852 138.426 865.852 138.426C868.765 138.426 871.193 138.426 874.107 138.426C874.107 138.426 874.107 138.426 874.593 137.942ZM936.751 97.7697C937.237 98.7377 935.78 100.19 936.266 100.19C939.665 98.2537 941.608 96.8017 943.55 95.8337C943.064 93.8976 944.036 91.9616 942.093 90.5096C940.636 90.9936 938.694 90.0256 937.237 91.4776C936.266 93.4136 937.723 94.3817 939.18 95.8337C937.723 96.3177 937.237 96.8017 936.751 97.7697ZM876.049 52.7569C877.021 51.7889 878.478 50.8209 878.963 49.3689C877.506 48.8849 877.021 46.4648 875.078 46.9488C870.222 50.3369 870.222 51.3049 872.165 52.7569C873.136 52.7569 874.593 52.7569 876.049 52.7569ZM911.014 90.5096C912.471 90.5096 913.928 90.5096 915.384 90.5096C915.87 90.0256 916.356 89.0576 917.327 88.5736C918.298 88.0895 919.755 89.0576 920.241 86.6375C916.841 86.6375 912.956 86.6375 909.557 86.6375C909.071 86.6375 909.071 87.6055 908.586 87.6055C909.071 88.5736 910.043 89.5416 911.014 90.5096ZM853.226 138.426C854.682 137.942 856.625 138.91 858.082 137.942C858.082 136.006 856.139 136.974 855.168 136.49C853.226 134.554 851.283 132.618 849.341 130.682H848.855C848.37 133.586 848.37 133.586 853.226 138.426ZM926.554 89.5416C926.554 88.5736 926.068 87.6055 925.582 85.1855C924.125 87.1215 923.154 88.0895 922.183 89.0576C922.669 89.5416 929.953 93.8976 930.438 93.8976C930.924 93.8976 931.41 93.4136 932.381 92.9296C931.41 90.9936 928.01 90.9936 926.554 89.5416ZM95.6662 146.655C90.3244 146.655 90.3244 146.655 87.8963 148.107C89.3532 148.107 90.3244 148.591 90.81 148.591C93.2381 148.591 95.6662 149.075 97.6086 148.107C98.0942 146.171 98.5798 144.235 96.6374 142.298C96.6374 143.751 96.6374 144.719 95.6662 146.655ZM75.7559 145.687C76.7272 146.655 77.6984 148.107 79.6409 148.591C79.6409 146.171 79.6409 144.235 79.6409 141.814C79.6409 141.33 78.6696 141.33 78.184 140.846C77.6984 142.299 75.7559 142.783 75.7559 145.687ZM883.334 131.65C882.362 130.682 881.391 129.714 880.42 128.746C878.478 128.746 876.535 127.778 875.078 129.714C876.535 130.198 877.506 130.198 878.478 130.682C879.449 131.166 880.42 132.618 881.877 132.134C881.877 132.134 882.848 132.134 883.334 131.65ZM891.589 53.2409C892.56 54.209 893.046 55.661 894.989 56.145C895.96 55.177 896.931 54.209 897.417 53.7249C896.445 52.7569 895.474 51.7889 894.503 50.8209C893.532 51.3049 892.56 52.2729 891.589 53.2409ZM111.206 166.499C110.72 164.563 110.72 164.079 110.235 162.627C108.778 163.111 107.807 163.111 106.35 163.111C106.835 164.563 106.835 165.531 106.835 166.499C108.292 166.499 109.263 166.499 111.206 166.499ZM303.024 7.74414C307.88 8.71215 307.88 8.71215 309.337 7.26013C307.88 6.29211 305.938 6.29211 303.024 7.74414ZM904.215 64.8571C905.186 63.4051 907.129 62.4371 907.129 60.9851C906.158 60.0171 904.701 60.0171 903.244 61.4691C903.73 62.4371 904.215 63.4051 904.215 64.8571ZM872.65 128.262C868.28 126.326 868.28 126.81 866.823 128.262C867.794 128.262 868.765 128.746 869.737 128.746C870.708 128.746 871.679 128.262 872.65 128.262ZM887.219 173.759C885.276 172.307 882.848 172.307 880.906 173.759C883.334 175.211 885.276 175.211 887.219 173.759ZM123.832 182.955C125.289 181.503 125.289 180.051 124.317 178.599C123.346 178.599 122.375 179.083 121.889 179.083C122.375 180.051 123.346 181.503 123.832 182.955ZM844.485 48.4008C844.97 48.4008 845.456 48.4008 845.941 48.4008C845.941 47.4328 846.427 46.4648 846.427 45.4968L845.941 45.0128C845.456 45.0128 844.485 45.4968 844.485 45.4968C843.999 46.4648 844.485 47.4328 844.485 48.4008ZM854.682 47.4328C852.74 45.9808 851.283 45.4968 850.798 47.9168C851.769 48.8849 852.74 48.8849 854.682 47.4328ZM910.043 57.113C910.043 57.597 910.043 58.081 910.043 58.565C911.014 58.565 911.985 59.049 912.956 59.049L913.442 58.565C913.442 58.081 912.956 57.113 912.471 57.113C911.985 56.629 911.014 56.629 910.043 57.113ZM915.87 63.4051C914.413 61.9531 912.956 61.9531 911.985 63.4051C913.442 64.8571 914.413 64.8571 915.87 63.4051ZM922.669 94.8657C922.669 95.3497 922.669 95.8337 922.669 96.3177C923.64 96.3177 924.611 96.8017 925.582 96.8017L926.068 96.3177C926.068 95.8337 925.582 94.8657 925.097 94.8657C924.125 94.3817 923.154 94.8657 922.669 94.8657ZM124.317 206.672C125.774 204.736 126.26 203.768 123.832 202.8C122.861 204.252 122.861 205.22 124.317 206.672ZM152.969 166.499C151.512 167.951 151.512 169.403 152.969 170.371C154.426 169.403 154.426 167.951 152.969 166.499ZM868.765 123.422C870.222 124.874 871.679 124.874 872.65 123.422C871.679 121.97 870.222 121.97 868.765 123.422ZM918.298 121.002C918.298 121.486 918.298 121.97 918.298 122.454C919.269 122.454 920.24 122.938 921.212 122.938L921.697 122.454C921.697 121.97 921.212 121.002 920.726 121.002C920.241 120.518 919.269 121.002 918.298 121.002ZM838.172 45.9808C838.657 46.4648 838.657 46.4648 839.143 46.4648C839.143 45.9808 839.628 45.4968 839.628 45.0128L839.143 44.5288C838.657 45.0128 838.657 45.4968 838.172 45.9808ZM921.212 45.0128C920.726 45.0128 920.24 45.4968 919.755 45.4968L920.241 45.9808C920.726 45.9808 921.212 45.4968 921.697 45.4968C922.183 45.4968 921.697 45.0128 921.212 45.0128ZM868.28 50.3369C868.765 49.8529 868.765 49.8529 869.251 49.8529C868.765 49.8529 868.28 49.3689 867.794 49.3689L867.309 49.8529C867.309 49.8529 867.794 49.8529 868.28 50.3369ZM480.273 51.7889C480.273 51.3049 479.788 50.8209 479.302 50.3369L478.816 50.8209C478.816 51.3049 479.302 51.7889 479.302 52.2729C479.788 52.2729 479.788 52.2729 480.273 51.7889ZM888.19 52.2729C888.676 52.2729 889.161 51.7889 889.647 51.7889L889.161 51.3049C888.676 51.3049 888.19 51.7889 887.704 51.7889C887.704 51.7889 887.704 51.7889 888.19 52.2729ZM889.161 65.8252C889.161 65.3411 888.676 64.8571 888.19 64.3731L887.704 64.8571C887.704 65.3411 888.19 65.8252 888.19 66.3092C888.676 66.3092 888.676 66.3092 889.161 65.8252ZM264.66 77.9254C264.66 77.4414 264.175 76.9574 263.689 76.4733L263.203 76.9574C263.203 77.4414 263.689 77.9254 263.689 78.4094C264.175 78.4094 264.175 77.9254 264.66 77.9254ZM224.84 82.7655C224.354 82.7655 223.869 83.2495 223.383 83.2495L223.869 83.7335C224.354 83.7335 224.84 83.2495 225.325 83.2495C225.325 83.2495 225.325 83.2495 224.84 82.7655ZM179.192 90.5096C179.678 90.5096 180.163 90.0256 180.649 90.0256L180.163 89.5416C179.678 89.5416 179.192 90.0256 178.706 90.0256C178.706 90.0256 179.192 90.0256 179.192 90.5096ZM73.3279 104.062C73.3279 103.578 72.8422 103.094 72.3566 102.61L71.871 103.094C71.871 103.578 72.3566 104.062 72.3566 104.546C72.8422 104.546 73.3279 104.062 73.3279 104.062ZM134.515 104.546L134.03 105.03C134.03 105.514 134.515 105.998 134.515 106.482L135.001 105.998C135.001 105.514 134.515 105.03 134.515 104.546ZM105.378 106.966C104.893 107.45 104.893 107.45 104.407 107.45C104.893 107.45 105.378 107.934 105.864 107.934L106.35 107.45C106.35 107.45 105.864 106.966 105.378 106.966ZM76.2416 113.742C76.7272 114.226 76.7272 114.226 77.2128 114.226C77.2128 113.742 77.6984 113.258 77.6984 112.774L77.2128 112.29C76.7272 113.258 76.2416 113.258 76.2416 113.742ZM67.9861 118.098C68.4717 118.582 68.4717 118.582 68.9573 118.582C68.9573 118.098 69.4429 117.614 69.4429 117.13L68.9573 116.646C68.4717 117.13 67.9861 117.614 67.9861 118.098ZM864.395 121.97C864.395 121.486 863.909 121.002 863.424 120.518L862.938 121.002C862.938 121.486 863.424 121.97 863.424 122.454C863.909 122.454 863.909 121.97 864.395 121.97ZM858.567 133.586C858.567 134.07 859.053 134.554 859.539 135.038L860.024 134.554C860.024 134.07 859.539 133.586 859.539 133.102C859.539 133.102 859.053 133.102 858.567 133.586ZM101.008 143.267C101.008 143.751 101.494 144.235 101.979 144.719L102.465 144.235C102.465 143.751 101.979 143.267 101.979 142.783C101.494 142.783 101.008 143.267 101.008 143.267ZM893.532 146.171C894.017 146.655 894.017 146.655 894.503 146.655C894.503 146.171 894.989 145.687 894.989 145.203L894.503 144.719C894.017 145.203 894.017 145.687 893.532 146.171ZM149.569 163.595C149.084 163.111 149.084 163.111 148.598 163.111C148.598 163.595 148.113 164.079 148.113 164.563L148.598 165.047C149.084 164.079 149.084 163.595 149.569 163.595ZM114.12 166.499C114.605 166.015 114.605 166.015 115.091 166.015C114.605 166.015 114.12 165.531 113.634 165.531L113.148 166.015C113.148 166.015 113.634 166.015 114.12 166.499ZM899.359 167.467C898.873 166.983 898.873 166.983 898.388 166.983C898.388 167.467 897.902 167.951 897.902 168.435L898.388 168.919C898.873 168.435 898.873 167.951 899.359 167.467ZM110.72 169.887L110.235 169.403C109.749 169.403 109.263 169.887 108.778 169.887L109.263 170.371C109.749 170.371 110.235 169.887 110.72 169.887ZM137.915 181.987C138.4 182.471 138.4 182.471 138.886 182.471C138.886 181.987 139.372 181.503 139.372 181.019L138.886 180.535C138.4 181.019 137.915 181.503 137.915 181.987Z" fill="#0077FF" fill-opacity="0.29"/>
<path d="M971.23 62.4371C971.23 61.4691 971.23 60.5011 971.23 59.533C972.201 59.049 972.687 59.049 974.144 58.565C975.601 60.5011 977.057 61.9531 978.514 64.3731C978.514 64.3731 978.029 64.8571 977.543 65.8252C977.543 67.2772 977.057 68.7292 977.057 70.6652C976.086 70.6652 974.629 71.1493 974.144 70.6652C971.716 68.7292 969.773 66.7932 967.345 64.3731C965.888 65.3412 964.917 65.8252 963.46 66.7932C962.489 65.3412 961.518 63.8891 960.547 62.9211C959.09 62.9211 958.118 62.9211 957.147 62.9211C957.147 61.9531 956.662 60.9851 956.662 59.533C958.118 59.049 959.575 58.565 960.547 58.081C959.575 56.629 959.09 55.661 958.118 54.209C959.09 53.7249 960.061 53.2409 961.518 52.2729C962.489 53.7249 962.975 55.177 963.946 56.629C963.946 56.629 963.46 57.113 962.489 58.081C963.946 59.049 965.403 59.533 966.86 60.0171C968.802 60.5011 969.773 62.4371 971.23 62.4371C971.716 63.4051 971.23 65.3412 973.172 63.8891C972.687 63.4051 972.201 62.9211 971.23 62.4371Z" fill="#0077FF" fill-opacity="0.29"/>
<path d="M156.854 10.6482C155.883 11.1322 155.397 12.1002 154.911 12.5842C154.426 12.1002 153.94 11.6162 152.969 10.6482C149.084 10.6482 144.713 10.6482 140.343 10.6482C139.857 11.1322 139.372 11.6162 138.886 12.1002C137.915 11.6162 136.944 11.1322 135.487 10.1642C134.515 10.6482 133.544 11.6162 132.087 12.5842C131.116 12.5842 129.659 12.5842 128.202 12.5842C126.746 11.1322 126.746 10.1642 128.202 8.71216C128.688 9.19617 129.659 10.1642 130.145 10.6482C130.631 9.68017 131.116 9.19617 132.087 8.71216C145.199 8.71216 158.311 8.71216 170.937 8.71216C172.393 7.74414 172.879 7.26013 173.85 6.29211C175.307 7.26013 176.764 7.74414 178.221 8.71216C179.192 8.22815 180.163 7.26013 181.135 6.77612C182.591 7.26013 182.106 8.71216 181.62 9.68017C181.135 10.1642 181.135 10.6482 180.649 10.6482C173.365 10.6482 165.109 10.6482 156.854 10.6482Z" fill="#0077FF" fill-opacity="0.29"/>
<path d="M106.835 12.5842C106.835 13.0682 106.35 13.5522 105.864 14.5203C97.6085 14.5203 89.353 14.5203 81.0976 14.5203C80.6119 15.0043 80.1263 15.4883 79.1551 16.4563C76.727 17.4243 74.2989 16.4563 71.3853 16.9403C71.3853 16.4563 71.8709 15.4883 72.3565 15.4883C73.8133 15.0043 75.2702 14.5203 77.6982 13.0682C79.6407 13.0682 83.04 13.0682 86.4393 13.0682C87.4105 12.1002 88.8674 11.6162 89.8386 10.6482C91.2955 11.6162 92.7523 12.1002 94.2092 13.0682C95.1804 12.5842 96.1516 11.6162 97.1229 11.1322C97.6085 11.6162 98.5797 12.1002 99.0653 13.0682C101.979 12.5842 104.407 12.5842 106.835 12.5842Z" fill="#0077FF" fill-opacity="0.29"/>
<path d="M955.69 55.661C953.748 57.113 952.291 58.081 950.349 59.533C951.32 61.4691 952.291 62.4371 953.262 64.3731C953.262 65.3411 953.262 66.7932 953.262 67.7612C951.32 69.2132 949.863 71.1492 948.406 72.6013C947.435 71.1492 945.007 70.6652 945.492 67.7612C946.464 67.2772 947.921 66.3092 949.377 65.8252C950.349 63.4051 947.921 62.4371 946.949 61.4691C949.863 57.113 951.32 55.177 953.748 54.693C953.748 54.693 954.234 55.177 955.69 55.661Z" fill="#0077FF" fill-opacity="0.29"/>
<path d="M753.675 6.29211C754.646 6.29211 755.617 6.29211 756.589 6.29211C757.56 5.8081 758.045 4.84009 758.531 4.35608C759.017 4.84009 759.502 5.3241 760.473 6.29211C767.272 6.29211 774.071 6.29211 780.869 6.29211C782.326 7.74414 782.326 8.71216 781.355 10.1642C779.898 10.1642 778.441 10.1642 776.499 10.1642C776.013 9.68017 775.527 9.19616 774.556 8.22815C767.758 8.22815 760.959 8.22815 753.675 8.22815C754.16 7.74414 754.16 7.26013 753.675 6.29211Z" fill="#0077FF" fill-opacity="0.29"/>
<path d="M963.46 98.7377C965.888 98.7377 968.316 98.7377 970.745 98.7377C971.716 99.7057 972.201 100.674 973.658 102.126C972.201 103.094 970.745 104.062 970.259 104.546C969.288 106.966 970.259 108.418 968.316 108.902C967.831 107.934 967.345 106.482 966.86 105.514C965.403 105.514 963.946 105.03 962.004 105.03C961.032 104.062 961.032 104.062 963.46 102.126C963.46 100.674 963.46 99.7057 963.46 98.7377Z" fill="#0077FF" fill-opacity="0.29"/>
<path d="M796.894 9.68017C796.894 8.71216 797.38 7.26013 797.38 5.80811C798.351 6.77612 799.322 7.74414 799.808 8.22815C800.294 7.74414 801.265 6.77612 801.75 6.29211C802.236 6.77612 802.722 7.26013 803.693 8.22815C807.092 9.19617 810.977 7.74414 815.348 9.19616C811.948 10.6482 810.492 11.1322 796.894 9.68017Z" fill="#0077FF" fill-opacity="0.29"/>
<path d="M739.592 4.35608C743.962 4.35608 748.333 4.35608 752.218 4.35608C753.189 4.35608 754.16 5.3241 753.675 6.29211C752.703 6.29211 751.732 6.29211 750.761 6.29211C750.275 6.77612 749.304 7.74414 748.818 8.22815C748.333 7.74414 747.362 7.26013 746.39 6.29211C744.448 6.29211 742.505 6.29211 740.077 6.29211C739.592 5.3241 739.592 4.84009 739.592 4.35608Z" fill="#0077FF" fill-opacity="0.29"/>
<path d="M29.6224 105.998C27.1943 106.482 26.7087 106.482 25.2519 106.966C24.7662 107.934 24.2806 109.386 23.3094 110.838C22.3382 110.838 21.8526 110.838 21.3669 110.838C19.4245 108.902 22.3382 108.902 22.3382 107.45C22.3382 105.998 22.3382 105.03 22.3382 104.062C22.8238 103.578 23.3094 103.578 23.3094 103.094C24.2806 104.546 26.7087 104.546 29.6224 105.998Z" fill="#0077FF" fill-opacity="0.29"/>
<path d="M125.289 11.1322C124.318 12.1002 123.832 12.1002 123.832 12.1002C120.433 12.1002 117.033 12.1002 113.634 12.1002L113.148 11.6162C115.577 10.1642 115.577 10.1642 125.289 11.1322Z" fill="#0077FF" fill-opacity="0.29"/>
<path d="M50.9896 18.3923C49.0471 20.3284 45.6478 22.2644 43.2197 21.7804C43.2197 19.8444 45.1622 19.3604 45.6478 18.3923C47.5903 18.3923 49.5327 18.3923 50.9896 18.3923Z" fill="#0077FF" fill-opacity="0.29"/>
<path d="M67.5006 76.4733C67.5006 78.4094 67.5006 79.3774 67.5006 80.3454C66.5294 80.3454 65.5582 80.8294 64.1013 80.8294C64.1013 79.3774 63.6157 78.4094 63.6157 76.9573C64.587 76.9573 65.5582 76.4733 67.5006 76.4733Z" fill="#0077FF" fill-opacity="0.29"/>
<path d="M903.73 26.1365C903.73 28.0725 903.73 29.0405 903.73 30.0085C902.758 30.0085 901.787 30.4926 900.33 30.4926C900.33 29.0405 899.845 28.0725 899.845 26.6205C900.816 26.6205 901.787 26.6205 903.73 26.1365Z" fill="#0077FF" fill-opacity="0.29"/>
<path d="M50.9897 17.9083C53.4178 15.4883 56.3315 16.4563 59.2452 16.9403C56.8171 19.3603 53.9034 17.9083 50.9897 17.9083Z" fill="#0077FF" fill-opacity="0.29"/>
<path d="M35.4501 103.094C37.3926 103.094 36.4213 105.03 36.9069 105.998C37.3926 106.966 38.3638 107.45 39.8206 108.418C37.8782 108.902 36.4213 108.902 35.4501 108.902C34.4789 106.482 34.4789 104.546 35.4501 103.094Z" fill="#0077FF" fill-opacity="0.29"/>
<path d="M950.349 45.9808C952.777 46.4648 953.748 46.4648 955.205 46.9488C953.748 48.4008 952.777 49.8529 950.834 49.8529C951.32 49.3689 950.834 48.4008 950.349 45.9808Z" fill="#0077FF" fill-opacity="0.29"/>
<path d="M930.438 56.629C930.438 57.597 930.438 59.049 929.953 60.0171C927.525 60.5011 927.525 58.081 926.068 58.081C927.039 55.661 928.982 57.113 930.438 56.629Z" fill="#0077FF" fill-opacity="0.29"/>
<path d="M930.438 70.6653C930.924 68.7292 930.924 67.7612 930.924 66.3092C931.895 67.2772 932.867 67.7612 933.352 68.7292C933.838 69.2132 933.838 69.6972 934.323 70.1812C933.838 70.1812 933.352 70.6653 932.867 70.6653C932.381 70.6653 931.895 70.6653 930.438 70.6653Z" fill="#0077FF" fill-opacity="0.29"/>
<path d="M12.1401 114.71C12.1401 113.742 12.1401 112.774 12.1401 111.806C13.1114 109.87 14.5682 110.838 16.5107 110.354C15.0538 112.774 14.0826 114.226 12.1401 114.71Z" fill="#0077FF" fill-opacity="0.29"/>
<path d="M110.72 208.608C109.749 208.608 108.778 208.608 107.807 208.608C105.864 207.64 106.35 206.188 107.321 204.736C108.778 205.704 110.235 206.672 110.72 208.608Z" fill="#0077FF" fill-opacity="0.29"/>
<path d="M786.211 7.26013C787.668 5.8081 789.125 5.8081 790.096 6.77612C789.61 9.19616 788.153 8.71215 786.211 7.26013Z" fill="#0077FF" fill-opacity="0.29"/>
<path d="M106.35 12.5842C107.806 10.1642 107.806 10.1642 110.235 11.1322C109.749 13.5522 107.806 12.1002 106.35 12.5842Z" fill="#0077FF" fill-opacity="0.29"/>
<path d="M71.8712 16.4563C70.4144 18.3923 70.4144 18.3923 67.9863 17.4243C68.4719 15.4883 70.4144 16.9403 71.8712 16.4563Z" fill="#0077FF" fill-opacity="0.29"/>
<path d="M913.442 31.9446C912.471 31.9446 911.5 32.4286 910.528 32.4286C910.043 32.4286 910.043 31.4606 909.557 30.9766L910.043 30.4926C911.014 30.4926 911.985 30.4926 912.956 30.9766C913.442 31.4606 913.442 31.4606 913.442 31.9446Z" fill="#0077FF" fill-opacity="0.29"/>
<path d="M938.694 65.8252C940.151 64.3731 941.608 64.8571 942.579 65.3412C941.608 67.2772 940.151 66.7932 938.694 65.8252Z" fill="#0077FF" fill-opacity="0.29"/>
<path d="M62.6444 84.7015C64.1012 86.1535 64.1012 87.6055 62.6444 88.5735C61.1875 87.1215 61.1875 85.6695 62.6444 84.7015Z" fill="#0077FF" fill-opacity="0.29"/>
<path d="M56.3312 88.5735C57.7881 90.0256 57.7881 91.4776 56.8168 92.4456C54.3888 91.4776 54.8744 90.0256 56.3312 88.5735Z" fill="#0077FF" fill-opacity="0.29"/>
<path d="M110.72 201.832C109.264 203.284 107.807 203.284 106.835 201.832C107.807 200.38 109.264 200.38 110.72 201.832Z" fill="#0077FF" fill-opacity="0.29"/>
<path d="M120.918 192.635C120.918 193.603 121.404 194.571 120.918 195.539C120.432 196.023 119.461 196.507 118.976 196.991C118.976 195.539 118.976 194.087 118.976 193.119C119.461 192.635 120.432 192.635 120.918 192.635Z" fill="#0077FF" fill-opacity="0.29"/>
<path d="M88.3818 172.791C88.3818 171.339 88.3818 169.887 88.3818 168.919C90.3243 168.919 90.3243 169.887 90.3243 171.339C89.8387 172.307 89.3531 172.791 88.3818 172.791Z" fill="#0077FF" fill-opacity="0.29"/>
<path d="M88.3821 168.919C86.4397 167.951 86.4397 167.951 87.4109 165.047C89.3534 165.531 87.8965 167.467 88.3821 168.919Z" fill="#0077FF" fill-opacity="0.29"/>
<path d="M35.9354 152.463C37.3923 153.915 37.3923 155.367 35.9354 156.335C34.4786 155.367 34.4786 153.915 35.9354 152.463Z" fill="#0077FF" fill-opacity="0.29"/>
<path d="M38.8493 149.559C37.3924 151.011 35.9356 151.011 34.9644 149.559C35.9356 148.107 37.3924 148.107 38.8493 149.559Z" fill="#0077FF" fill-opacity="0.29"/>
<path d="M57.3024 143.751C55.8456 145.203 54.3887 145.203 53.4175 143.751C54.3887 142.298 55.8456 142.298 57.3024 143.751Z" fill="#0077FF" fill-opacity="0.29"/>
<path d="M36.9067 114.71C37.3923 113.258 35.9355 111.806 37.8779 110.838C38.8492 113.258 38.8492 113.258 36.9067 114.71Z" fill="#0077FF" fill-opacity="0.29"/>
<path d="M793.981 6.77612C794.466 7.26013 794.466 7.26013 794.952 7.26013C794.466 7.26013 793.981 7.74414 793.495 7.74414L793.01 7.26013C793.01 7.26013 793.495 6.77612 793.981 6.77612Z" fill="#0077FF" fill-opacity="0.29"/>
<path d="M819.233 9.68017C818.747 10.1642 818.747 10.1642 818.262 10.1642C818.262 9.68017 817.776 9.19617 817.776 8.71216L818.262 8.22815C818.747 8.71216 818.747 9.19617 819.233 9.68017Z" fill="#0077FF" fill-opacity="0.29"/>
<path d="M63.1302 15.0043C63.1302 15.4883 62.6446 15.9723 62.159 16.4563L61.6733 15.9723C61.6733 15.4883 62.159 15.0043 62.159 14.5203C62.6446 14.5203 63.1302 15.0043 63.1302 15.0043Z" fill="#0077FF" fill-opacity="0.29"/>
<path d="M15.5396 40.6567C16.5108 39.6887 16.9964 39.2047 17.482 38.7207C18.9389 40.6567 17.482 40.1727 15.5396 40.6567Z" fill="#0077FF" fill-opacity="0.29"/>
<path d="M16.9967 40.1727C16.0255 41.1407 15.5398 41.6247 15.0542 42.1087C13.5974 40.6567 15.0542 40.6567 16.9967 40.1727Z" fill="#0077FF" fill-opacity="0.29"/>
<path d="M948.892 57.113C947.92 56.145 947.435 55.661 946.949 55.177C948.892 54.2089 948.892 55.661 948.892 57.113Z" fill="#0077FF" fill-opacity="0.29"/>
<path d="M35.9354 80.3454C35.4497 80.3454 34.9641 79.8614 34.4785 79.8614L34.9641 79.3774C35.4497 79.3774 35.9354 79.8614 36.421 79.8614C36.421 79.8614 36.421 79.8614 35.9354 80.3454Z" fill="#0077FF" fill-opacity="0.29"/>
<path d="M49.5328 89.0576C48.5616 88.0896 48.0759 87.6055 47.5903 87.1215C49.0472 86.1535 49.0472 87.6055 49.5328 89.0576Z" fill="#0077FF" fill-opacity="0.29"/>
<path d="M50.9898 90.5096C49.533 90.5096 49.0474 90.0256 49.0474 88.5735C50.5042 88.5735 50.9898 89.0576 50.9898 90.5096Z" fill="#0077FF" fill-opacity="0.29"/>
<path d="M50.9897 90.0256C51.961 90.9936 52.4466 91.4776 52.9322 91.9616C51.4754 92.9296 51.4754 91.4776 50.9897 90.0256Z" fill="#0077FF" fill-opacity="0.29"/>
<path d="M962.004 92.4456C961.518 91.9616 961.518 91.9616 961.032 91.9616C961.518 91.9616 962.004 91.4776 962.489 91.4776L962.975 91.9616C962.975 91.9616 962.489 91.9616 962.004 92.4456Z" fill="#0077FF" fill-opacity="0.29"/>
<path d="M963.46 99.2217C962.489 98.2537 962.003 97.7697 961.518 97.2857C962.975 95.8337 962.975 97.7697 963.46 99.2217Z" fill="#0077FF" fill-opacity="0.29"/>
<path d="M49.5327 101.642C49.5327 101.158 50.0183 100.674 50.5039 100.19L50.9896 100.674C50.9896 101.158 50.5039 101.642 50.5039 102.126C50.0183 102.61 49.5327 102.126 49.5327 101.642Z" fill="#0077FF" fill-opacity="0.29"/>
<path d="M54.3889 108.418C54.3889 108.902 54.8745 109.386 54.8745 109.87L54.3889 110.354C54.3889 109.87 53.9033 109.386 53.9033 108.902C53.4177 108.902 53.9033 108.902 54.3889 108.418Z" fill="#0077FF" fill-opacity="0.29"/>
<path d="M1.94246 117.13C0.97123 116.162 0.485615 115.678 0 115.194C1.94246 114.226 1.45685 115.678 1.94246 117.13Z" fill="#0077FF" fill-opacity="0.29"/>
<path d="M12.6261 114.226C11.6548 115.194 11.1692 115.678 10.6836 116.162C9.71239 114.71 11.1692 114.71 12.6261 114.226Z" fill="#0077FF" fill-opacity="0.29"/>
<path d="M1.45703 116.162C2.42826 117.13 2.91388 117.614 3.39949 118.098C1.94265 119.066 1.94265 117.614 1.45703 116.162Z" fill="#0077FF" fill-opacity="0.29"/>
<path d="M61.6729 130.682C61.1873 130.682 60.2161 130.682 59.7305 130.682C59.7305 130.198 60.2161 129.23 60.2161 129.23C61.1873 128.746 61.6729 129.714 61.6729 130.682Z" fill="#0077FF" fill-opacity="0.29"/>
<path d="M59.2452 130.682C59.2452 132.134 58.7596 132.618 57.3027 132.618C57.3027 131.166 57.7883 130.682 59.2452 130.682Z" fill="#0077FF" fill-opacity="0.29"/>
<path d="M36.4212 136.006C35.9356 136.49 35.9356 136.49 35.45 136.49C35.45 136.006 34.9644 135.522 34.9644 135.038L35.45 134.554C35.9356 135.038 36.4212 135.522 36.4212 136.006Z" fill="#0077FF" fill-opacity="0.29"/>
<path d="M928.01 144.719C928.982 143.751 929.467 143.267 929.953 142.783C930.924 144.719 929.467 144.235 928.01 144.719Z" fill="#0077FF" fill-opacity="0.29"/>
<path d="M884.305 146.171C883.819 146.171 883.334 145.687 882.848 145.687L883.334 145.203C883.819 145.203 884.305 145.687 884.791 145.687C884.791 145.687 884.791 146.171 884.305 146.171Z" fill="#0077FF" fill-opacity="0.29"/>
<path d="M908.586 144.235C907.615 145.203 907.129 145.687 906.643 146.171C905.186 144.719 906.643 144.719 908.586 144.235Z" fill="#0077FF" fill-opacity="0.29"/>
<path d="M932.381 160.691C931.41 160.691 930.438 160.691 930.924 159.239C930.924 158.755 931.895 158.755 932.381 158.755C932.381 159.239 932.381 160.207 932.381 160.691Z" fill="#0077FF" fill-opacity="0.29"/>
<path d="M919.269 182.955C919.269 183.439 919.755 183.923 919.755 184.407L919.269 184.891C919.269 184.407 918.784 183.923 918.784 183.439C918.298 183.439 918.784 182.955 919.269 182.955Z" fill="#0077FF" fill-opacity="0.29"/>
<path d="M110.72 208.124C111.691 209.092 112.177 209.576 112.663 210.06C110.72 211.512 110.72 209.576 110.72 208.124Z" fill="#0077FF" fill-opacity="0.29"/>
<path d="M135.972 165.047C136.458 165.047 136.944 165.531 137.429 165.531L136.944 166.015C136.458 166.015 135.972 165.531 135.487 165.531L135.972 165.047Z" fill="#0077FF" fill-opacity="0.29"/>
</svg>
