<svg width="93" height="59" viewBox="0 0 93 59" fill="none" xmlns="http://www.w3.org/2000/svg">
<path d="M15.006 0.0166494C19.6539 0.0166494 24.3017 0.027675 28.9546 0.000111127C29.5757 -0.00540164 29.7386 0.193058 29.7488 0.849077C29.7844 3.50072 29.8811 6.14684 29.9371 8.79848C29.9422 9.09617 30.1408 9.54271 29.5859 9.57578C29.1277 9.60335 28.751 9.64194 28.6288 8.94733C28.4099 7.71247 28.0281 6.52723 27.5445 5.37506C26.9234 3.89212 25.8951 3.03213 24.429 2.70688C22.301 2.23278 20.1477 2.37611 17.9994 2.34304C17.6838 2.33752 17.5463 2.48637 17.5769 2.82816C17.587 2.96047 17.5769 3.09828 17.5769 3.23059C17.5769 12.5196 17.5769 21.8141 17.5769 31.1031C17.5769 32.0679 17.6227 33.0271 17.8416 33.9698C18.0503 34.8573 18.5492 35.4141 19.3484 35.6732C20.2291 35.9599 21.1251 36.1363 22.0414 36.1804C22.4029 36.1969 22.637 36.2576 22.637 36.7592C22.6421 37.3105 22.3469 37.2664 22.0109 37.2664C17.3885 37.2609 12.761 37.2664 8.13866 37.2609C7.84339 37.2609 7.49213 37.3877 7.47686 36.8033C7.46159 36.2576 7.71613 36.2024 8.10811 36.1804C9.02444 36.1253 9.92041 35.9433 10.7909 35.6071C11.4731 35.3424 11.9007 34.8353 12.0891 34.0855C12.3334 33.0932 12.4047 32.0844 12.4047 31.0645C12.4047 21.748 12.3996 12.4259 12.4149 3.10931C12.4149 2.53047 12.3029 2.31547 11.7276 2.33752C9.97641 2.39265 8.22011 2.31547 6.4689 2.5415C4.19844 2.83367 2.66613 4.02994 1.97379 6.43351C1.72944 7.27696 1.44436 8.10939 1.34254 8.98592C1.256 9.72463 0.797835 9.58681 0.370215 9.5813C-0.143948 9.57578 0.0240455 9.1513 0.034227 8.88118C0.100406 6.17992 0.19713 3.47315 0.253128 0.771898C0.263309 0.165494 0.431303 0.000111127 0.986192 0.00562389C5.65947 0.027675 10.3328 0.0166494 15.006 0.0166494Z" fill="white"/>
<path d="M77.5863 0.0168849C82.2393 0.0168849 86.8871 0.0279104 91.54 0.00585938C92.0796 0.00585938 92.2578 0.132653 92.268 0.750083C92.3189 3.40172 92.4309 6.04785 92.4971 8.69949C92.5073 9.02474 92.772 9.53743 92.1051 9.58705C91.5553 9.62564 91.2702 9.50436 91.148 8.8318C90.9291 7.6245 90.5524 6.46131 90.0688 5.3367C89.4885 3.98056 88.567 3.12057 87.218 2.76776C84.9984 2.19443 82.7432 2.37084 80.4982 2.34327C80.2081 2.33776 80.1012 2.49212 80.1113 2.78981C80.1164 2.97724 80.1113 3.16467 80.1113 3.35211C80.1113 12.4592 80.1113 21.5663 80.1113 30.6789C80.1113 31.6988 80.1419 32.7076 80.3353 33.7164C80.5339 34.7639 81.0582 35.4309 82.0305 35.712C82.8705 35.9546 83.7156 36.131 84.581 36.1806C84.9373 36.2027 85.1817 36.2578 85.1868 36.7595C85.1868 37.3108 84.8864 37.2667 84.5555 37.2667C79.9026 37.2667 75.2548 37.2667 70.6019 37.2667C70.2812 37.2667 70.0317 37.2777 70.0164 36.787C70.0012 36.2964 70.215 36.2027 70.5917 36.1806C71.4317 36.131 72.2513 35.9546 73.0658 35.7065C74.0687 35.3978 74.5777 34.6867 74.7508 33.6062C74.9239 32.5202 74.985 31.4231 74.985 30.3261C74.9901 21.2962 74.9748 12.2718 75.0003 3.24185C75.0003 2.47558 74.7814 2.30468 74.1247 2.32673C72.1495 2.38737 70.1692 2.24956 68.2092 2.69609C66.6108 3.05993 65.4806 3.98056 64.829 5.61786C64.3912 6.70387 64.0603 7.82847 63.8872 8.98616C63.7854 9.68628 63.3731 9.57051 62.9658 9.57602C62.4313 9.58705 62.5484 9.16256 62.5585 8.83731C62.6451 6.10849 62.7571 3.37967 62.8131 0.64534C62.8283 -0.0106789 63.1287 0.00585938 63.5563 0.0113721C68.2398 0.0223977 72.9131 0.0168849 77.5863 0.0168849Z" fill="white"/>
<path d="M47.7906 0.567883C51.8225 0.567883 55.8543 0.578909 59.8811 0.556858C60.5276 0.551345 60.66 0.711215 60.5123 1.41134C60.0236 3.75977 59.5909 6.11924 59.1684 8.48421C59.0869 8.94729 58.9698 9.09613 58.5066 9.05203C57.9924 9.00241 58.0739 8.6937 58.0841 8.34088C58.1044 7.61871 58.1248 6.89654 58.0993 6.17437C58.0484 4.63079 57.2848 3.54478 55.9358 3.07068C54.8209 2.67927 53.6602 2.56902 52.4995 2.49735C50.28 2.35953 48.0553 2.29338 45.8307 2.50838C44.9144 2.59658 44.4206 3.13132 44.1762 4.06298C43.1224 8.14794 42.0483 12.2384 40.9691 16.3234C40.8723 16.6982 40.7552 16.9739 41.3203 16.9463C43.4431 16.8361 45.566 16.7534 47.6735 16.4336C48.8291 16.2572 49.7098 15.7115 50.4123 14.7247C50.9876 13.9143 51.5068 13.0653 51.9243 12.1557C52.133 11.7037 52.4079 11.8084 52.7184 11.9132C53.1206 12.051 52.8966 12.3487 52.8355 12.5692C51.6545 16.5714 50.4632 20.5627 49.272 24.5594C49.1906 24.8241 49.1753 25.1548 48.7528 25.028C48.3608 24.9123 48.2386 24.7028 48.3251 24.2838C48.5135 23.3411 48.6917 22.3984 48.6459 21.4227C48.5797 20.0941 48.0146 19.3389 46.8081 19.0798C44.7769 18.6387 42.7152 18.8482 40.6687 18.8041C40.1851 18.7931 40.2258 19.2451 40.1495 19.5428C39.3451 22.6575 38.5561 25.7833 37.767 28.9035C37.4463 30.1659 37.1205 31.4283 36.8099 32.6963C36.2856 34.8187 36.9168 35.8771 38.892 36.1969C39.3095 36.263 39.7269 36.3127 40.1444 36.3347C40.46 36.3512 40.6432 36.4284 40.6331 36.8419C40.6229 37.2333 40.4345 37.2609 40.1596 37.2609C36.1278 37.2553 32.0959 37.2609 28.0692 37.2609C27.8045 37.2609 27.5856 37.2609 27.5703 36.8584C27.5601 36.467 27.7179 36.3292 28.0437 36.3237C30.1666 36.2796 31.1592 34.8187 31.6785 32.8396C32.8188 28.49 33.9388 24.135 35.0486 19.7799C36.2398 15.1161 37.4157 10.4468 38.5764 5.77193C38.7088 5.23168 38.7902 4.66938 38.8106 4.11259C38.8717 2.59107 38.4084 1.96261 37.0238 1.64839C36.5656 1.54364 36.0871 1.54364 35.634 1.43339C35.3387 1.36172 34.7991 1.71454 34.8093 1.00339C34.8195 0.237117 35.3896 0.578909 35.6951 0.578909C38.0419 0.545832 40.3938 0.56237 42.7406 0.56237C44.4257 0.567883 46.1107 0.567883 47.7906 0.567883Z" fill="white"/>
<path d="M63.3882 10.3418C63.3882 19.1402 63.378 27.7346 63.4085 36.329C63.4136 37.1228 63.2049 37.2937 62.5075 37.2882C58.4298 37.2551 54.3572 37.2717 50.1625 37.2717C54.571 28.2969 58.9389 19.4048 63.3882 10.3418ZM51.7762 36.9905C51.7762 37.007 51.7762 37.0236 51.7762 37.0401C55.1972 37.0401 58.6233 37.0401 62.0442 37.0401C62.0442 37.0236 62.0442 37.007 62.0442 36.9905C58.6233 36.9905 55.2023 36.9905 51.7762 36.9905Z" fill="white"/>
<path d="M28.8068 56.4453C27.4017 57.7132 25.9 58.5842 24.108 58.7551C22.8557 58.8764 21.634 58.7662 20.4885 58.1653C19.0835 57.4266 18.2944 56.1917 18.2028 54.4993C18.1061 52.7572 18.7526 51.3791 20.0966 50.3978C21.2012 49.5929 22.4587 49.3449 23.7415 49.185C25.1669 49.0031 26.5821 48.7936 27.9821 48.4352C28.5013 48.3029 28.7101 48.0714 28.6948 47.465C28.6541 45.53 27.9821 44.5984 26.2309 44.2511C25.4011 44.0912 24.5509 44.1132 23.7161 44.2511C22.5045 44.4495 21.6543 45.1882 21.3234 46.4617C21.1452 47.1508 20.8602 47.2996 20.2747 47.1177C19.9438 47.013 19.5926 46.9578 19.2515 46.9633C18.6406 46.9688 18.6661 46.6601 18.7984 46.164C19.5468 43.4021 21.4863 42.3161 23.8993 42.0074C25.4469 41.8089 27.0047 41.8365 28.5166 42.4043C30.0846 42.9997 30.95 44.1794 31.1332 45.938C31.3216 47.8068 31.1892 49.6811 31.2198 51.5555C31.2452 53.1872 31.1536 54.8245 31.3776 56.4453C31.4234 56.7871 31.4794 57.1344 31.5761 57.4652C31.8612 58.4685 31.8663 58.4685 30.9245 58.4685C29.3566 58.463 29.3566 58.463 28.8068 56.4453ZM28.6795 51.4618C28.6897 50.3261 28.6897 50.3316 27.7123 50.6403C27.5239 50.701 27.3356 50.7616 27.1421 50.8002C25.6658 51.1089 24.1793 51.368 22.7183 51.7319C21.5016 52.0351 20.8347 52.9888 20.8703 54.174C20.906 55.3868 21.69 56.3295 22.8965 56.5666C25.4011 57.0682 28.7813 55.9547 28.6795 51.4618Z" fill="white"/>
<path d="M42.4296 51.037C40.8006 51.037 39.1665 51.0646 37.5374 51.0205C36.9265 51.0039 36.8553 51.23 36.9367 51.8088C37.3134 54.4053 38.4996 56.0205 40.4137 56.4726C42.4805 56.9632 44.247 56.0591 45.1073 53.9753C45.3568 53.3689 45.6215 53.1649 46.2019 53.3413C46.5531 53.4461 46.9349 53.5067 47.3014 53.5012C48.0192 53.4792 47.9582 53.832 47.7647 54.3833C46.5786 57.746 43.8194 59.0856 40.6784 58.7494C36.8298 58.3359 34.5085 55.5299 34.3506 51.3347C34.2946 49.7691 34.3761 48.231 34.8444 46.737C35.8626 43.5011 38.4996 41.7204 41.9307 41.9354C44.8324 42.1173 47.1895 44.3996 47.836 47.6522C48.0141 48.5452 48.0549 49.4548 48.1007 50.3644C48.1261 50.8826 47.9632 51.0591 47.4694 51.0535C45.7895 51.0205 44.1096 51.037 42.4296 51.037ZM41.1875 48.8264C42.4194 48.8264 43.6565 48.8319 44.8884 48.8264C45.143 48.8264 45.4586 48.9201 45.3975 48.4074C45.2702 47.3269 45.0157 46.3071 44.3081 45.4912C43.0456 44.0413 41.4726 43.7877 39.8181 44.3886C38.128 45.0005 37.3338 46.4669 37.0538 48.3137C36.9825 48.7988 37.2167 48.8374 37.5578 48.8374C38.7694 48.8209 39.9759 48.8264 41.1875 48.8264Z" fill="white"/>
<path d="M73.972 50.5909C73.9312 51.8699 73.8142 53.441 73.1422 54.8909C71.9255 57.5149 69.1307 59.0971 66.285 58.7829C63.2356 58.4466 61.067 56.5722 60.3186 53.5402C59.7281 51.1312 59.7332 48.711 60.5732 46.3681C61.5404 43.6503 63.4851 42.206 66.1017 41.9689C70.943 41.5224 74.0127 44.819 73.972 50.5909ZM62.5229 50.3097C62.5076 51.087 62.5586 51.8588 62.7113 52.6251C63.144 54.8137 64.6559 56.3903 66.4988 56.5667C68.4536 56.7487 70.215 55.6792 70.8717 53.7332C71.6404 51.4509 71.6913 49.108 70.8055 46.8422C69.6092 43.7771 65.837 43.1652 63.8007 45.6625C62.7164 46.9911 62.528 48.6228 62.5229 50.3097Z" fill="white"/>
<path d="M53.5225 44.6099C53.8585 44.0862 54.0825 43.7389 54.3014 43.3861C55.5588 41.396 57.5645 41.7047 59.0459 42.5867C59.2547 42.708 59.3361 42.8514 59.2241 43.0994C59.1478 43.2648 59.0969 43.4467 59.0358 43.6231C58.8678 44.0972 58.8118 44.7147 58.4961 45.0068C58.1398 45.3376 57.6613 44.8249 57.2184 44.7367C55.8592 44.4776 54.6985 45.1667 54.2199 46.5835C53.833 47.7302 53.7465 48.9264 53.7465 50.1392C53.7465 52.6255 53.7312 55.1173 53.7567 57.6035C53.7618 58.232 53.6549 58.4911 53.0033 58.48C51.2419 58.4359 51.2419 58.4745 51.2419 56.5451C51.2419 52.0797 51.2521 47.6089 51.2266 43.1435C51.2215 42.471 51.3335 42.2064 52.0258 42.2339C53.4716 42.2891 53.4716 42.245 53.4869 43.8492C53.492 44.0256 53.5072 44.2075 53.5225 44.6099Z" fill="white"/>
</svg>
