<svg width="1525" height="227" viewBox="0 0 1525 227" fill="none" xmlns="http://www.w3.org/2000/svg">
<path d="M73.3756 136.974C72.6192 138.426 75.645 138.426 76.4014 139.878C74.8885 140.362 73.3756 140.362 72.6192 140.846C68.837 139.394 67.3241 136.974 65.8112 134.554C65.0547 135.038 63.5418 136.006 62.0289 136.974C60.516 134.554 60.516 133.102 59.7596 130.682C55.9773 130.682 52.1951 130.682 49.1693 130.682C47.6564 131.65 45.3871 133.102 43.1177 134.554C42.3613 133.586 42.3613 133.102 41.6048 132.134C40.0919 130.682 38.579 129.714 37.0661 128.262C35.5532 129.714 34.7968 131.166 34.0403 132.618C32.5274 132.618 31.771 132.618 30.2581 132.618C29.5016 131.65 28.7452 130.198 27.9887 128.746C25.7194 128.746 23.4501 128.746 21.9372 128.262C17.3985 125.842 13.6162 123.422 9.83398 121.486C9.83398 120.518 9.83398 120.034 9.83398 119.066C14.3727 118.098 18.9114 118.582 23.4501 118.582C24.2065 119.066 25.7194 120.034 27.2323 121.002C27.9887 119.066 27.9887 117.13 28.7452 115.194C31.0145 113.742 34.0403 114.71 36.3097 114.71C37.8226 114.226 38.579 113.258 39.3355 112.774C40.8484 113.258 41.6048 113.742 43.1177 114.71C43.8742 112.29 43.8742 110.354 44.6306 108.902C49.9258 109.87 51.4386 114.226 56.7338 114.71C59.0031 116.162 59.0031 116.162 62.7854 116.162C62.7854 115.678 63.5418 115.678 63.5418 115.194C63.5418 111.806 63.5418 108.418 63.5418 105.514C62.0289 104.546 61.2725 104.062 60.516 103.094C60.516 101.642 60.516 100.19 63.5418 100.19C66.5676 100.19 70.3499 103.578 74.1321 107.934C75.645 107.934 77.1579 108.418 78.6708 108.902C79.4272 108.902 79.4272 109.386 79.4272 109.386C79.4272 110.354 79.4272 110.838 79.4272 111.322C80.9401 112.29 82.453 113.258 83.9659 114.226C87.7482 113.258 88.5046 110.354 90.774 108.418C93.0433 105.998 97.582 105.998 100.608 105.03C101.364 105.514 102.121 105.998 102.877 106.482C105.903 105.998 105.146 104.546 104.39 103.578C102.877 102.126 100.608 101.158 102.121 99.2217C105.146 97.7697 108.929 98.7377 112.711 98.7377C114.224 98.2537 114.98 97.2857 115.737 96.8017C118.763 95.8337 120.275 98.2537 122.545 98.7377C124.058 98.2537 124.814 97.2857 126.327 96.8017C127.84 97.2857 129.353 98.2537 131.622 98.7377C132.379 98.2537 133.892 97.2857 135.404 96.3177C135.404 95.8337 134.648 95.3497 134.648 94.8657C130.109 92.4456 124.058 90.9936 118.006 90.5096C115.737 88.5736 117.25 86.1535 116.493 83.7335C114.224 83.2495 111.955 82.2814 110.442 81.7974C110.442 80.8294 110.442 80.3454 110.442 79.8614C114.98 75.9893 123.301 75.9893 128.596 72.6013C134.648 72.6013 141.456 72.6013 147.508 72.6013C148.264 72.1173 149.02 71.6333 150.533 70.6652C158.098 70.6652 165.662 70.6652 173.227 70.6652C174.74 69.6972 175.496 69.2132 176.253 68.7292C180.791 67.7612 186.843 69.2132 191.382 67.2772C186.086 65.8252 181.548 66.7932 177.009 66.3092C172.47 66.3092 167.175 66.3092 162.637 66.3092C158.098 66.3092 152.803 66.3092 148.264 66.3092C143.725 66.3092 139.187 66.3092 134.648 66.3092C133.135 65.3411 132.379 64.8571 131.622 64.3731C112.711 64.3731 93.0433 64.3731 74.1321 64.3731C72.6192 63.8891 71.8628 62.9211 70.3499 62.4371C62.0289 62.4371 53.708 62.4371 44.6306 62.4371C43.8742 61.9531 43.1177 61.4691 41.6048 60.5011C38.579 60.5011 34.7968 60.5011 31.771 60.5011C30.2581 59.533 29.5016 59.049 28.7452 58.565C26.4758 58.565 24.2065 58.081 21.1807 58.081C21.1807 57.113 20.4243 56.145 19.6678 54.693C18.1549 54.209 15.8856 52.7569 13.6162 51.7889C14.3727 47.9168 19.6678 46.9488 21.9372 44.5288C24.2065 44.5288 26.4758 44.5288 27.9887 44.5288C31.771 43.5608 32.5274 43.0768 33.2839 42.5928C37.0661 42.5928 40.0919 42.5928 43.1177 42.5928C44.6306 43.5608 45.3871 44.0448 46.9 44.5288C47.6564 43.0768 47.6564 42.1087 47.6564 41.1407C50.6822 39.2047 54.4644 40.6567 58.2467 40.1727C59.7596 41.1407 60.516 41.6247 62.0289 42.5928C63.5418 41.1407 65.0547 39.2047 66.5676 37.2687C63.5418 35.3326 60.516 33.3966 57.4902 31.4606C60.516 29.0405 64.2983 27.1045 67.3241 25.1684C70.3498 24.2004 74.1321 24.6844 77.9143 24.2004C78.6708 23.7164 80.1837 23.2324 81.6966 22.2644C85.4788 22.2644 90.0175 22.2644 93.7998 22.2644C95.3126 21.2964 96.0691 20.8124 96.8255 20.3284C105.903 20.3284 116.493 20.3284 125.571 20.3284C127.84 19.3603 128.596 19.3603 129.353 18.3923C139.943 18.3923 150.533 18.3923 161.124 18.3923C162.637 17.9083 163.393 16.9403 164.906 16.4563C180.035 16.4563 194.407 16.4563 209.536 16.4563C210.293 15.9723 211.806 15.0043 212.562 14.5203C214.075 15.0043 214.831 15.9723 216.344 16.9403C217.857 16.4563 219.37 15.9723 222.396 15.0043C223.152 15.0043 223.909 15.4883 225.422 16.4563C226.178 15.9723 226.935 15.0043 228.448 14.5203C229.204 15.0043 230.717 15.4883 231.473 16.4563C232.23 15.9723 232.986 15.4883 233.743 15.0043C234.499 15.0043 234.499 14.5203 235.256 14.5203C256.436 14.5203 277.617 14.5203 298.797 14.5203C299.554 14.0362 300.31 13.5522 301.067 13.0682C301.823 13.0682 301.823 12.5842 302.579 12.5842C332.081 12.5842 362.339 12.5842 391.84 12.5842C392.597 12.1002 393.353 11.6162 394.866 10.6482C410.752 10.6482 427.393 10.6482 443.279 10.6482C444.035 9.68017 444.035 9.19616 444.792 8.71215C453.113 8.71215 461.434 8.22814 469.755 8.22814L470.511 7.74414C458.408 6.77612 453.869 6.77612 444.792 9.19616C443.279 9.19616 441.766 9.19616 440.253 9.19616C438.74 8.71215 437.984 7.74414 437.227 7.26013C433.445 6.29211 432.689 8.71215 429.663 9.19616C428.15 8.71215 426.637 8.22814 423.611 7.26013C413.021 7.26013 400.918 7.26013 388.815 7.26013C388.058 7.74414 387.302 8.22814 385.789 9.19616C358.557 9.19616 329.812 9.19616 302.579 9.19616C301.067 10.1642 300.31 10.6482 299.554 11.1322C295.771 11.1322 291.989 11.6162 288.207 10.6482C288.207 9.68017 288.207 8.71215 288.207 8.22814C288.963 7.74414 288.963 7.26013 289.72 7.26013C307.118 7.26013 323.76 7.26013 340.402 7.26013C341.915 6.77612 342.671 5.8081 344.184 5.32409C344.941 5.8081 346.454 6.77612 347.21 7.26013C347.966 5.8081 348.723 5.32409 349.479 4.84009C350.236 5.32409 351.749 5.8081 353.262 6.29211C355.531 6.29211 359.313 6.29211 363.095 6.29211C364.608 6.29211 365.365 3.87207 369.147 4.35608C369.903 4.84009 371.416 5.32409 372.173 6.29211C372.929 5.8081 374.442 4.84009 375.199 4.35608C412.264 4.35608 450.087 4.35608 487.153 4.35608C488.666 3.87207 489.422 2.90405 490.179 2.42004C490.935 2.90405 491.692 3.38806 493.204 4.35608C493.961 3.87207 495.474 3.38806 496.987 2.90405C500.769 2.90405 505.308 2.90405 509.846 2.90405C510.603 3.38806 511.359 3.87207 512.872 4.35608C513.629 3.87207 515.141 3.38806 515.898 2.42004C516.654 2.90405 518.167 3.38806 518.924 4.35608C519.68 3.87207 520.437 3.38806 521.193 2.90405C521.95 2.90405 522.706 2.42004 524.219 2.42004C559.772 2.42004 595.325 2.42004 630.878 2.42004C632.391 1.93603 633.147 0.968017 633.904 0.484009C635.417 0.968017 636.173 1.93603 636.93 2.42004C640.712 3.38806 641.468 0.968017 645.251 0.484009C646.007 0.968017 648.276 1.45203 649.789 2.42004C650.546 1.93603 651.302 1.45203 652.815 0.968017C767.039 0.968017 882.019 0.968017 995.486 0.968017C996.243 1.45203 996.999 1.93603 998.512 2.90405C999.268 2.42004 1000.78 1.45203 1001.54 0.968017C1004.56 0.968017 1007.59 0.968017 1011.37 0.968017C1012.88 1.45203 1013.64 2.42004 1014.4 2.90405C1016.67 2.90405 1018.94 2.90405 1020.45 2.90405C1021.96 2.42004 1022.72 1.45203 1023.47 0.968017C1031.04 0.968017 1038.6 0.968017 1046.17 0.968017C1046.92 1.45203 1047.68 1.93603 1048.44 2.42004C1049.95 1.93603 1051.46 1.45203 1053.73 0.484009C1055.25 0.968017 1056.76 1.93603 1058.27 2.42004C1059.03 1.93603 1060.54 1.45203 1061.3 0.484009C1063.57 0.484009 1065.08 0.484009 1067.35 0.484009C1068.11 0.968017 1069.62 1.93603 1070.37 2.42004C1071.89 1.93603 1072.64 0.968017 1074.16 0C1075.67 0.484009 1077.18 0.968017 1080.21 1.93603C1080.96 1.45203 1082.48 0.968017 1084.75 0C1086.26 0.484009 1087.77 1.45203 1089.29 1.93603C1090.8 1.45203 1092.31 0.484009 1093.82 0C1095.34 0.968017 1096.85 1.45203 1098.36 2.42004C1099.88 1.93603 1100.63 0.968017 1102.15 0C1103.66 0.484009 1105.17 0.968017 1108.95 2.42004C1120.3 2.42004 1133.16 2.42004 1146.02 2.42004C1146.78 3.38806 1146.78 3.87207 1147.53 4.35608C1144.51 4.35608 1142.24 4.35608 1139.97 4.35608C1138.45 4.84009 1137.7 5.8081 1136.94 6.29211C1136.19 5.8081 1135.43 5.32409 1134.67 4.84009C1111.22 3.87207 1073.4 3.87207 1062.05 5.32409L1062.81 5.8081C1063.57 5.8081 1065.08 6.29211 1065.84 6.29211C1084.75 6.29211 1102.9 6.29211 1121.06 6.29211C1121.81 6.77612 1122.57 7.26013 1124.08 8.22814C1134.67 8.22814 1145.26 8.22814 1155.85 8.22814C1157.37 9.19616 1158.12 9.68017 1158.88 10.1642C1172.5 10.1642 1186.87 10.1642 1200.48 10.1642C1202 11.1322 1202.75 11.6162 1203.51 12.1002C1219.39 12.1002 1236.04 12.1002 1251.17 12.1002C1252.68 13.0682 1253.44 13.5522 1254.19 14.0362C1260.24 14.0362 1267.05 14.0362 1273.1 14.0362C1274.62 14.5203 1275.37 15.4883 1276.89 15.9723C1281.42 15.9723 1285.21 15.9723 1289.74 15.9723C1291.26 16.4563 1292.01 17.4243 1293.53 17.9083C1301.09 17.9083 1308.66 17.9083 1315.46 17.9083C1316.22 18.3923 1316.98 18.8763 1318.49 19.8443C1323.78 20.3284 1329.08 19.8443 1335.13 20.3284C1335.89 20.8124 1336.64 21.2964 1338.16 22.2644C1345.72 22.2644 1353.29 22.2644 1360.85 22.2644C1362.36 23.2324 1363.12 23.7164 1363.88 24.2004C1364.63 23.7164 1366.15 23.2324 1366.9 22.2644C1367.66 22.7484 1369.17 23.2324 1369.93 24.2004C1375.22 24.2004 1380.52 24.2004 1385.81 24.2004C1387.33 25.1684 1388.08 26.1365 1389.6 27.1045C1389.6 27.1045 1388.84 28.0725 1388.08 28.0725C1382.03 28.0725 1375.22 28.0725 1369.17 28.0725C1368.42 28.0725 1368.42 28.5565 1368.42 28.5565C1369.17 30.0085 1371.44 29.5245 1372.95 30.0085C1374.47 30.9765 1376.74 32.4286 1379.01 33.8806C1379.76 33.3966 1381.27 32.9126 1382.79 31.9446C1388.08 31.9446 1393.38 31.9446 1398.67 31.9446C1399.43 32.4286 1400.94 33.3966 1401.7 33.8806C1404.72 33.8806 1407.75 33.8806 1410.78 33.8806C1412.29 34.3646 1413.05 35.3326 1414.56 35.8166C1416.83 35.8166 1419.1 35.8166 1420.61 35.8166C1422.12 36.3006 1422.88 37.2687 1424.39 37.7527C1427.42 37.7527 1430.44 37.7527 1433.47 37.7527C1434.98 39.6887 1436.5 41.1407 1438.01 43.0768C1437.25 43.5608 1436.5 44.0448 1434.98 45.0128C1437.25 46.4648 1440.28 45.4968 1442.55 45.9808C1444.82 44.5288 1447.09 43.0768 1449.36 42.1087C1451.62 42.1087 1453.89 42.1087 1455.41 42.1087C1459.19 44.0448 1456.16 45.4968 1453.89 47.4328C1457.68 48.8849 1462.21 48.4008 1465.24 47.9168C1466.75 47.4328 1467.51 46.9488 1469.02 45.9808C1469.02 47.4328 1469.78 48.4008 1469.78 49.3689C1467.51 49.8529 1466 50.3369 1463.73 50.8209C1464.48 51.7889 1465.24 52.7569 1466 53.7249C1463.73 55.177 1460.7 53.7249 1458.43 54.693C1456.92 53.7249 1456.16 53.2409 1454.65 52.2729C1453.89 53.2409 1453.89 54.209 1453.14 55.177C1456.92 56.629 1460.7 57.113 1462.97 59.533C1460.7 60.0171 1459.19 60.0171 1457.68 60.9851C1456.16 61.9531 1454.65 62.9211 1452.38 62.4371C1448.6 60.9851 1451.62 59.049 1450.11 57.113C1448.6 56.145 1446.33 56.629 1444.06 56.629C1444.06 55.177 1444.06 53.2409 1444.06 51.3049C1442.55 50.8209 1441.79 50.8209 1440.28 50.3369C1436.5 51.3049 1435.74 54.209 1431.2 54.209C1427.42 54.693 1425.91 56.145 1424.39 57.597C1424.39 60.9851 1430.44 60.9851 1430.44 63.8891C1428.93 63.8891 1427.42 63.8891 1425.15 63.8891C1424.39 64.8571 1424.39 65.8252 1423.64 66.3092C1422.88 67.2772 1422.12 68.2452 1420.61 69.2132C1422.12 70.1812 1423.64 71.1493 1425.15 71.6333C1426.66 70.6652 1428.17 69.6972 1429.69 68.7292C1429.69 66.7932 1429.69 65.3411 1429.69 63.8891C1430.44 63.8891 1431.2 64.3731 1432.71 64.8571C1432.71 66.7932 1432.71 68.7292 1432.71 71.1492C1432.71 72.1173 1428.17 72.6013 1430.44 75.5053C1430.44 75.5053 1431.96 76.4733 1433.47 77.4414C1436.5 76.9574 1437.25 74.5373 1441.79 74.0533C1441.79 74.0533 1444.06 74.0533 1446.33 74.0533C1447.84 73.5693 1448.6 72.6013 1450.11 72.1173C1451.62 73.5693 1453.14 74.5373 1454.65 75.9893C1456.16 77.9254 1456.92 79.8614 1459.19 81.7974C1460.7 83.2495 1463.73 84.7015 1466 86.1535C1469.02 86.1535 1472.05 86.1535 1475.83 86.1535C1477.34 87.6055 1479.61 89.0576 1481.13 90.0256C1483.4 90.0256 1484.15 90.0256 1485.66 90.0256C1486.42 90.9936 1486.42 91.4776 1487.18 92.9296C1484.91 93.8977 1481.88 95.3497 1480.37 96.3177C1480.37 98.2537 1480.37 99.7057 1480.37 101.158C1479.61 102.126 1478.1 102.61 1477.34 103.094C1478.1 104.062 1479.61 104.546 1480.37 105.03C1481.13 106.966 1479.61 108.418 1481.88 109.87C1482.64 108.418 1484.15 106.966 1484.91 105.514C1486.42 107.45 1487.93 108.902 1489.45 110.838C1488.69 111.322 1487.93 111.806 1487.18 112.774C1487.93 113.258 1489.45 114.226 1490.2 114.71C1490.2 116.162 1490.2 117.614 1490.2 118.582C1489.45 119.066 1488.69 119.55 1487.93 119.55C1475.07 119.55 1462.21 119.55 1450.87 119.55C1449.36 120.518 1448.6 121.002 1447.09 121.486C1443.3 121.486 1438.01 121.486 1433.47 121.486C1434.23 123.906 1437.25 124.39 1438.76 126.326C1438.01 126.81 1438.01 127.294 1437.25 127.294C1428.93 127.294 1420.61 127.294 1411.53 127.294C1410.78 128.746 1409.26 130.198 1407.75 131.65C1403.21 130.198 1399.43 129.23 1395.65 127.778C1391.87 129.23 1387.33 130.198 1382.79 131.65C1381.27 129.714 1380.52 128.262 1379.76 127.294C1378.25 127.294 1377.49 127.294 1376.74 127.294C1373.71 128.746 1375.98 130.198 1375.22 132.134C1374.47 133.102 1372.95 134.07 1371.44 135.038C1369.17 135.038 1366.9 135.522 1363.88 135.522C1363.12 136.006 1362.36 136.006 1362.36 136.49C1362.36 138.91 1362.36 141.814 1362.36 144.235C1361.61 145.203 1360.09 145.687 1359.34 146.171C1360.85 147.139 1362.36 148.107 1363.88 149.075C1364.63 148.591 1366.15 147.623 1366.9 147.139C1369.17 147.139 1372.2 147.139 1374.47 147.139C1375.22 148.107 1375.98 149.075 1377.49 149.075C1379.76 149.075 1382.79 149.559 1384.3 148.107C1382.03 146.171 1378.25 147.139 1374.47 147.139C1375.98 145.687 1377.49 143.751 1379.01 141.814C1379.76 141.814 1382.03 141.33 1383.54 140.846C1383.54 139.394 1384.3 137.942 1384.3 136.006C1386.57 134.554 1389.6 135.522 1391.87 135.038C1393.38 135.522 1394.13 136.49 1395.65 136.974C1397.92 136.974 1400.19 136.974 1402.46 136.974C1403.21 137.942 1403.21 138.426 1403.97 139.878C1400.19 141.814 1396.4 143.751 1394.13 145.203C1394.13 146.655 1394.13 147.623 1394.13 148.107C1396.4 149.559 1399.43 149.075 1401.7 149.075C1403.97 149.075 1406.24 149.075 1407.75 149.075C1410.02 149.075 1413.05 149.075 1415.32 149.075C1416.07 146.171 1413.05 147.623 1410.02 145.203C1410.78 146.171 1410.02 144.719 1409.26 143.751C1409.26 143.267 1407.75 143.267 1406.99 142.783C1406.99 140.362 1406.99 137.942 1406.99 136.006C1406.24 135.522 1404.72 134.554 1403.21 133.586C1405.48 133.102 1406.99 133.102 1409.26 133.102C1410.02 134.554 1410.02 135.522 1410.02 136.49C1412.29 137.942 1415.31 139.394 1417.58 141.33C1419.1 141.33 1420.61 141.814 1422.88 141.814C1422.88 144.235 1422.88 146.655 1422.88 148.107C1425.15 149.559 1426.66 150.527 1427.42 151.495C1429.69 151.495 1431.96 151.495 1434.23 151.495C1438.01 149.559 1434.23 146.655 1436.5 144.235C1437.25 144.235 1438.01 143.751 1439.52 143.751C1439.52 145.203 1439.52 147.139 1439.52 148.591C1440.28 149.075 1441.79 150.043 1442.55 151.011C1440.28 152.463 1438.01 153.431 1434.98 154.883C1435.74 155.851 1437.25 156.819 1438.01 158.271C1438.77 159.239 1439.52 160.691 1440.28 161.659C1443.3 162.143 1444.06 162.143 1445.57 160.207C1446.33 160.207 1447.84 159.723 1447.84 159.723C1448.6 158.755 1447.09 158.271 1445.57 158.271C1445.57 156.335 1449.36 155.851 1450.11 153.915C1452.38 155.367 1454.65 156.819 1456.92 158.271C1459.19 158.271 1461.46 158.271 1463.73 158.271C1463.73 159.239 1464.48 160.691 1464.48 161.659C1455.41 162.627 1448.6 164.563 1443.3 168.435C1439.52 167.467 1437.25 166.499 1434.98 166.015C1429.69 168.435 1435.74 172.307 1431.2 174.243C1429.69 173.275 1428.17 172.307 1426.66 171.339C1428.17 169.887 1431.2 169.403 1428.93 166.499C1425.15 165.531 1420.61 166.499 1415.32 166.015C1413.8 166.983 1412.29 167.951 1410.78 168.435C1410.02 172.307 1415.31 172.791 1416.07 175.211C1415.31 175.695 1413.8 176.663 1413.05 177.631C1406.99 180.051 1402.46 174.727 1394.89 176.663C1394.89 176.663 1393.38 177.147 1391.11 178.115C1389.6 177.147 1388.08 176.663 1385.81 175.695C1382.79 175.695 1379.76 175.695 1376.74 175.695C1375.22 176.663 1373.71 177.147 1372.95 177.631C1368.42 177.631 1367.66 174.243 1363.12 176.179C1363.12 176.663 1362.36 177.631 1362.36 178.599C1363.88 179.567 1365.39 180.535 1367.66 181.503C1372.2 182.955 1375.22 180.051 1379.76 179.567C1381.27 180.535 1382.03 181.019 1383.54 181.503C1384.3 181.019 1385.81 180.051 1386.57 179.567C1391.11 179.083 1393.38 183.439 1400.19 181.019C1399.43 181.019 1400.94 180.535 1402.46 180.051C1403.97 180.535 1405.48 181.019 1407.75 181.987C1409.26 181.503 1410.78 180.535 1413.05 179.567C1413.8 180.535 1415.32 181.503 1416.83 182.471C1415.32 182.955 1413.8 183.439 1411.53 183.923C1412.29 185.375 1414.56 184.891 1416.07 185.375C1417.58 185.859 1418.34 186.343 1419.1 186.827C1419.85 186.343 1420.61 185.859 1422.12 184.891C1422.88 185.375 1424.39 185.859 1425.91 186.827C1429.69 186.827 1434.23 186.827 1441.03 186.827C1438.76 187.311 1427.42 189.247 1426.66 189.247C1428.93 190.215 1431.2 190.699 1433.47 191.183C1431.2 193.603 1426.66 191.183 1423.64 193.603C1428.93 194.571 1434.23 194.087 1439.52 194.087C1444.06 194.087 1448.6 193.603 1454.65 195.055C1447.84 196.507 1443.3 195.539 1438.76 196.023C1436.5 196.991 1434.98 197.959 1432.71 198.927C1438.76 201.348 1444.06 198.927 1449.36 200.864C1448.6 201.832 1447.84 202.316 1446.33 203.284C1448.6 203.768 1450.87 204.736 1452.38 205.22C1452.38 206.188 1452.38 206.672 1452.38 207.156C1450.11 208.124 1447.09 208.608 1443.3 210.06C1441.79 210.06 1438.01 210.06 1434.98 210.06C1433.47 210.544 1432.71 211.512 1431.2 211.996C1420.61 211.996 1410.02 211.996 1399.43 211.996C1397.92 212.48 1397.16 213.448 1395.65 213.932C1372.95 213.932 1351.02 213.932 1328.32 213.932C1327.57 214.416 1326.81 214.9 1325.3 215.868C1316.22 216.352 1306.39 215.868 1295.8 215.868C1295.04 216.352 1294.28 216.836 1292.77 217.804C1270.83 217.804 1248.14 217.804 1225.45 217.804C1223.93 218.772 1223.18 219.256 1222.42 219.74C1183.84 219.74 1145.26 219.74 1107.44 219.74C1105.93 220.708 1105.17 221.192 1104.41 221.676C988.678 221.676 871.429 221.676 755.692 221.676C754.179 222.644 753.423 223.128 752.666 223.612C718.626 223.612 684.586 223.612 650.546 223.612C649.789 223.128 648.276 222.644 647.52 221.676C646.007 222.16 644.494 223.128 642.981 224.096C640.712 223.128 639.199 222.644 637.686 221.676C535.566 221.676 433.445 221.676 330.568 221.676C329.812 221.192 329.055 220.708 327.542 219.74C310.9 219.74 293.502 219.74 276.104 219.74C274.591 218.772 273.834 218.288 273.078 217.804C267.026 217.804 260.218 217.804 254.167 217.804C252.654 216.836 251.897 216.352 251.141 215.868C243.577 215.868 236.769 215.868 228.448 215.868C226.178 213.932 223.152 211.512 220.127 209.576C214.831 209.576 210.293 209.576 205.754 209.576C201.972 207.156 204.998 206.188 207.267 204.736C207.267 203.284 207.267 202.316 207.267 200.864C211.049 198.927 213.319 195.055 219.37 195.539C218.614 193.603 216.344 192.151 214.831 191.667C211.806 191.183 210.293 190.699 210.293 188.763C210.293 187.311 207.267 186.343 205.754 185.375C199.703 184.891 201.972 187.795 198.946 189.247C198.19 188.763 196.677 188.279 195.164 187.311C192.138 187.311 189.112 187.311 186.086 187.311C184.574 187.795 183.817 189.731 180.791 189.247C180.791 188.763 180.035 187.795 180.035 187.795C177.766 187.311 177.766 188.279 177.766 189.247C175.496 189.247 174.74 189.731 174.74 190.699C174.74 192.151 174.74 193.119 177.766 193.119C177.766 193.603 178.522 194.571 178.522 194.571C183.061 194.571 186.086 198.443 192.895 196.507C192.895 196.507 195.164 195.055 196.677 194.087C195.164 193.119 194.407 192.151 192.895 191.183C195.164 190.699 196.677 190.699 197.433 190.699C201.215 192.635 197.433 195.055 198.946 197.475C199.703 198.443 201.215 199.411 201.972 200.864C198.946 200.864 195.92 200.864 194.407 200.864C188.356 204.252 197.433 205.22 195.164 208.124C191.382 209.576 191.382 209.576 187.599 207.64C186.086 208.124 184.574 208.608 182.304 209.576C180.791 209.092 178.522 208.124 175.496 207.156C173.983 207.64 172.47 208.608 170.201 209.092C169.445 208.608 168.688 207.64 168.688 207.156C169.445 205.22 171.714 203.768 174.74 203.284C175.496 204.736 174.74 206.188 177.766 204.736C177.009 204.252 176.253 203.768 174.74 203.284C176.253 200.38 171.714 198.443 170.201 195.539C169.445 194.571 168.688 193.119 167.175 191.667C166.419 191.667 164.149 191.183 162.637 190.699C161.124 189.731 159.611 189.247 157.341 189.247C154.316 187.311 151.29 185.375 148.264 183.439C147.508 183.923 145.995 184.407 145.238 184.891C142.212 185.375 138.43 185.859 135.404 183.439C132.379 183.439 129.353 183.439 125.571 183.439C124.814 183.923 123.301 184.407 121.788 185.375C120.275 184.407 119.519 183.439 117.25 181.987C117.25 181.503 117.25 180.051 117.25 178.115C114.98 177.147 112.711 176.179 110.442 175.211C110.442 173.275 110.442 171.823 110.442 169.887C107.416 168.435 103.634 166.499 100.608 164.563C101.364 163.111 102.121 162.143 102.121 161.175C103.634 162.143 104.39 162.627 105.903 163.111C106.659 162.627 108.172 161.659 108.929 161.175C110.442 162.143 111.955 163.111 113.467 164.079C113.467 164.563 113.467 165.531 113.467 166.015C115.737 167.467 118.763 169.403 121.032 170.855C122.545 170.371 123.301 168.435 125.571 168.919C125.571 170.855 128.596 171.339 130.109 172.791C130.866 173.275 133.135 172.791 133.892 172.791C136.161 169.887 133.892 167.951 132.379 165.531C134.648 164.079 137.674 165.047 139.943 165.047C142.212 162.627 142.969 159.239 149.777 158.271C145.995 157.303 144.482 157.303 142.212 156.819C141.456 155.851 140.7 154.399 139.943 153.431C139.187 153.915 137.674 154.399 137.674 154.399C137.674 155.851 137.674 156.819 137.674 158.271C135.404 160.207 132.379 158.755 130.109 159.239C129.353 158.755 127.84 157.787 126.327 157.303C121.788 157.303 118.006 157.303 113.467 157.303C111.955 156.819 111.198 155.851 110.442 155.367C108.929 155.851 108.172 156.819 107.416 157.303C105.146 155.851 103.634 153.915 101.364 153.915C110.442 156.819 108.929 154.883 105.903 154.883C104.39 154.883 102.877 154.883 100.608 154.883C99.8513 155.367 98.3384 156.335 96.8255 156.819C96.0691 156.819 94.5562 156.819 93.7998 156.819C93.0433 156.819 91.5304 156.819 90.774 156.819C90.0175 156.819 90.0175 157.303 89.2611 157.303C86.2353 158.271 83.2095 159.239 80.1837 160.691C79.4272 160.207 78.6708 159.723 77.9143 159.239C74.8885 159.239 71.8627 159.239 69.5934 159.239C65.8112 157.787 62.7854 156.819 59.7596 155.851C62.7854 153.915 67.3241 152.463 68.837 150.043C70.3499 147.623 71.8627 146.171 74.8885 144.719C78.6708 144.235 79.4272 145.687 79.4272 147.623C80.9401 148.591 82.453 149.559 83.9659 150.527C86.9917 150.527 90.774 150.527 94.5562 150.527C95.3126 149.075 96.0691 148.107 96.8255 146.655C98.3384 147.623 99.0949 148.107 100.608 148.591C103.634 148.591 106.659 148.591 110.442 148.591C111.955 147.623 113.467 146.655 114.98 145.687C112.711 145.203 111.198 144.235 108.929 143.751C109.685 142.299 112.711 142.298 111.955 140.362C117.25 140.846 120.275 138.426 124.058 137.942C123.301 136.49 121.788 134.554 121.032 133.102C121.032 132.618 119.519 132.618 118.763 132.618C118.006 131.166 118.763 129.714 115.737 131.166C116.493 131.65 117.25 132.134 118.763 132.618C118.763 133.102 118.763 134.07 118.763 135.522C116.493 136.49 114.224 137.942 112.711 139.394C112.711 139.394 112.711 139.878 112.711 140.362C110.442 140.362 107.416 140.362 104.39 140.362C103.634 141.33 102.877 142.783 102.877 143.751C99.8513 144.719 96.8255 144.719 93.7998 143.751C94.5562 143.267 95.3127 142.298 96.8255 141.814C96.0691 140.362 93.0433 139.878 93.7998 137.942C94.5562 137.458 96.0691 136.49 96.8255 136.006C96.8255 134.554 96.8255 132.618 96.8255 131.166C97.582 131.166 99.0949 131.166 99.8513 130.682C100.608 132.134 99.8513 133.586 102.877 132.134C102.121 131.65 101.364 131.166 99.8513 130.682C101.364 129.714 102.121 128.746 102.877 127.778C99.0949 125.358 95.3127 123.422 91.5304 120.518C89.2611 122.938 90.774 125.842 89.2611 127.778C88.5046 128.746 86.9917 129.714 86.9917 131.166C86.9917 132.134 87.7482 133.102 90.0175 132.618C89.2611 134.554 90.774 136.49 88.5046 138.426C87.7482 137.942 86.2353 137.458 84.7224 136.49C83.9659 136.974 82.453 137.458 81.6966 138.426C80.9401 136.974 79.4272 136.006 78.6708 134.554C76.4014 135.522 74.8885 136.006 73.3756 136.974C72.6192 135.522 73.3756 134.07 70.3499 135.522C71.1063 136.006 71.8627 136.49 73.3756 136.974ZM1352.53 146.655C1354.8 146.171 1357.82 146.171 1355.56 144.719C1354.8 145.203 1354.04 145.687 1354.8 146.171C1352.53 146.655 1349.5 146.655 1351.77 148.107C1351.77 148.107 1352.53 147.623 1352.53 146.655ZM155.829 102.126C156.585 103.578 156.585 105.03 158.854 104.062C158.098 103.578 157.341 103.094 156.585 103.578C155.829 102.126 155.829 100.674 153.559 101.642C154.316 101.642 155.072 102.126 155.829 102.126ZM1372.2 66.3092C1374.47 65.8252 1377.49 67.2772 1378.25 65.3411C1374.47 64.3731 1374.47 64.3731 1372.2 66.3092C1372.95 66.7932 1372.2 66.3092 1372.2 66.3092C1370.68 66.7932 1369.93 66.7932 1369.17 67.2772L1369.93 67.7612C1371.44 67.7612 1372.2 67.2772 1372.2 66.3092ZM134.648 105.03C133.892 103.578 133.892 102.126 131.622 103.094C132.379 103.578 133.135 104.062 134.648 104.062C134.648 105.514 134.648 107.45 134.648 108.902C137.674 109.87 140.7 110.838 143.725 111.806C143.725 109.87 143.725 108.418 143.725 106.482C142.212 105.514 140.7 104.546 139.187 103.578C136.917 104.546 135.404 104.546 134.648 105.03ZM159.611 174.727C164.906 174.243 161.124 178.115 164.906 178.599C167.175 178.115 170.201 179.083 172.47 177.631C172.47 177.147 172.47 176.179 173.227 175.695C170.957 172.791 165.662 172.307 161.124 170.371C159.611 172.307 159.611 173.275 159.611 174.727C156.585 175.695 156.585 175.695 158.098 178.599C161.124 177.631 158.854 176.179 159.611 174.727ZM193.651 96.8017C196.677 95.8337 199.703 94.3817 201.972 94.8657C205.754 94.8657 207.267 93.4136 209.536 92.9296C210.293 93.4136 211.049 93.8977 211.806 94.3817C223.909 94.3817 236.012 94.3817 248.115 94.3817C249.628 93.4136 251.141 92.4456 252.654 91.4776C251.897 90.5096 251.897 89.5416 251.141 89.0576C249.628 89.0576 248.872 89.0576 247.359 89.0576C246.602 89.5416 245.089 90.5096 243.577 90.9936C227.691 90.9936 211.806 90.9936 195.92 90.9936C194.407 92.4456 191.382 92.9296 190.625 94.8657C192.138 95.3497 192.895 95.8337 193.651 96.8017ZM167.932 98.7377C171.714 94.8657 177.009 97.2857 181.548 95.8337C183.817 94.8657 186.843 94.3817 189.112 93.4136C188.356 92.4456 188.356 91.4776 187.599 90.5096C185.33 91.4776 183.061 91.9616 181.548 92.9296C180.035 91.9616 178.522 91.4776 177.766 90.5096C174.74 90.5096 171.714 90.5096 168.688 90.5096C167.175 90.9936 166.419 91.9616 165.662 92.4456C164.149 91.9616 163.393 91.4776 162.637 90.9936C160.367 91.9616 158.854 92.4456 157.341 92.9296C155.829 91.9616 154.316 91.4776 153.559 90.9936C152.046 91.4776 150.533 92.4456 149.02 92.4456C146.751 92.9296 145.238 92.9296 142.969 92.9296C142.969 92.9296 142.969 93.4136 142.212 93.4136C143.725 94.3817 145.238 95.3497 146.751 96.3177C149.02 96.3177 151.29 96.3177 152.803 96.3177C154.316 96.8017 155.072 97.7697 155.829 98.2537C157.341 97.7697 158.098 96.8017 159.611 96.3177C161.88 96.8017 164.906 95.8337 167.932 98.7377ZM197.433 163.111C194.407 164.079 192.895 164.563 190.625 165.047C187.599 166.015 185.33 163.595 182.304 163.111C182.304 164.079 181.548 165.047 181.548 165.531C183.817 166.983 186.086 167.951 187.599 169.403C188.356 170.371 189.112 171.823 189.869 173.275C192.895 173.275 195.164 173.275 197.433 173.275C198.19 174.727 198.946 175.695 198.946 176.663C201.215 175.695 203.485 175.211 204.998 174.243C204.998 171.823 204.998 170.855 204.241 169.887C201.215 167.467 197.433 166.015 197.433 163.111ZM1393.38 84.7015C1391.11 85.1855 1388.08 84.2175 1385.06 85.6695C1386.57 87.1215 1383.54 89.0576 1386.57 90.5096C1389.6 90.5096 1392.62 90.5096 1395.65 90.5096C1397.16 90.0256 1397.92 89.0576 1398.67 88.5736C1400.19 89.0576 1400.94 90.0256 1402.46 90.5096C1404.72 90.5096 1406.99 90.5096 1408.51 90.0256C1409.26 90.0256 1409.26 89.5416 1410.02 89.0576C1406.24 87.1215 1404.72 84.2175 1399.43 83.7335C1397.92 84.7015 1397.16 85.1855 1395.65 85.6695C1395.65 85.6695 1394.13 85.1855 1393.38 84.7015ZM212.562 170.855C216.344 170.371 220.127 171.339 223.152 170.371C222.396 169.403 220.883 168.435 220.127 167.467C219.37 166.015 220.883 164.079 218.614 163.111C214.831 163.595 211.806 162.627 208.023 163.595C208.023 165.047 208.023 166.499 208.023 167.951C209.536 168.919 211.049 169.887 212.562 170.855ZM1362.36 137.942C1362.36 135.038 1357.82 137.942 1357.07 136.006C1356.31 135.038 1355.56 133.586 1355.56 132.618C1352.53 133.102 1350.26 132.134 1347.23 133.586C1347.23 135.038 1347.23 136.49 1347.99 137.942C1347.99 138.426 1348.75 138.426 1348.75 138.426C1353.29 138.426 1357.07 138.426 1361.61 138.426C1361.61 138.426 1361.61 138.426 1362.36 137.942ZM1459.19 97.7697C1459.95 98.7377 1457.68 100.19 1458.43 100.19C1463.73 98.2537 1466.75 96.8017 1469.78 95.8337C1469.02 93.8976 1470.54 91.9616 1467.51 90.5096C1465.24 90.9936 1462.21 90.0256 1459.95 91.4776C1458.43 93.4136 1460.7 94.3817 1462.97 95.8337C1460.7 96.3177 1459.95 96.8017 1459.19 97.7697ZM1364.63 52.7569C1366.15 51.7889 1368.42 50.8209 1369.17 49.3689C1366.9 48.8849 1366.15 46.4648 1363.12 46.9488C1355.56 50.3369 1355.56 51.3049 1358.58 52.7569C1360.09 52.7569 1362.36 52.7569 1364.63 52.7569ZM1419.1 90.5096C1421.37 90.5096 1423.64 90.5096 1425.91 90.5096C1426.66 90.0256 1427.42 89.0576 1428.93 88.5736C1430.44 88.0895 1432.71 89.0576 1433.47 86.6375C1428.17 86.6375 1422.12 86.6375 1416.83 86.6375C1416.07 86.6375 1416.07 87.6055 1415.32 87.6055C1416.07 88.5736 1417.58 89.5416 1419.1 90.5096ZM1329.08 138.426C1331.35 137.942 1334.38 138.91 1336.64 137.942C1336.64 136.006 1333.62 136.974 1332.11 136.49C1329.08 134.554 1326.05 132.618 1323.03 130.682H1322.27C1321.52 133.586 1321.52 133.586 1329.08 138.426ZM1443.3 89.5416C1443.3 88.5736 1442.55 87.6055 1441.79 85.1855C1439.52 87.1215 1438.01 88.0895 1436.5 89.0576C1437.25 89.5416 1448.6 93.8976 1449.36 93.8976C1450.11 93.8976 1450.87 93.4136 1452.38 92.9296C1450.87 90.9936 1445.57 90.9936 1443.3 89.5416ZM149.02 146.655C140.7 146.655 140.7 146.655 136.917 148.107C139.187 148.107 140.7 148.591 141.456 148.591C145.238 148.591 149.02 149.075 152.046 148.107C152.803 146.171 153.559 144.235 150.533 142.298C150.533 143.751 150.533 144.719 149.02 146.655ZM118.006 145.687C119.519 146.655 121.032 148.107 124.058 148.591C124.058 146.171 124.058 144.235 124.058 141.814C124.058 141.33 122.545 141.33 121.788 140.846C121.032 142.299 118.006 142.783 118.006 145.687ZM1375.98 131.65C1374.47 130.682 1372.95 129.714 1371.44 128.746C1368.42 128.746 1365.39 127.778 1363.12 129.714C1365.39 130.198 1366.9 130.198 1368.42 130.682C1369.93 131.166 1371.44 132.618 1373.71 132.134C1373.71 132.134 1375.22 132.134 1375.98 131.65ZM1388.84 53.2409C1390.35 54.209 1391.11 55.661 1394.13 56.145C1395.65 55.177 1397.16 54.209 1397.92 53.7249C1396.4 52.7569 1394.89 51.7889 1393.38 50.8209C1391.87 51.3049 1390.35 52.2729 1388.84 53.2409ZM173.227 166.499C172.47 164.563 172.47 164.079 171.714 162.627C169.445 163.111 167.932 163.111 165.662 163.111C166.419 164.563 166.419 165.531 166.419 166.499C168.688 166.499 170.201 166.499 173.227 166.499ZM472.024 7.74414C479.588 8.71215 479.588 8.71215 481.858 7.26013C479.588 6.29211 476.563 6.29211 472.024 7.74414ZM1408.51 64.8571C1410.02 63.4051 1413.05 62.4371 1413.05 60.9851C1411.53 60.0171 1409.26 60.0171 1406.99 61.4691C1407.75 62.4371 1408.51 63.4051 1408.51 64.8571ZM1359.34 128.262C1352.53 126.326 1352.53 126.81 1350.26 128.262C1351.77 128.262 1353.29 128.746 1354.8 128.746C1356.31 128.746 1357.82 128.262 1359.34 128.262ZM1382.03 173.759C1379.01 172.307 1375.22 172.307 1372.2 173.759C1375.98 175.211 1379.01 175.211 1382.03 173.759ZM192.895 182.955C195.164 181.503 195.164 180.051 193.651 178.599C192.138 178.599 190.625 179.083 189.869 179.083C190.625 180.051 192.138 181.503 192.895 182.955ZM1315.46 48.4008C1316.22 48.4008 1316.98 48.4008 1317.73 48.4008C1317.73 47.4328 1318.49 46.4648 1318.49 45.4968L1317.73 45.0128C1316.98 45.0128 1315.46 45.4968 1315.46 45.4968C1314.71 46.4648 1315.46 47.4328 1315.46 48.4008ZM1331.35 47.4328C1328.32 45.9808 1326.05 45.4968 1325.3 47.9168C1326.81 48.8849 1328.32 48.8849 1331.35 47.4328ZM1417.58 57.113C1417.58 57.597 1417.58 58.081 1417.58 58.565C1419.1 58.565 1420.61 59.049 1422.12 59.049L1422.88 58.565C1422.88 58.081 1422.12 57.113 1421.37 57.113C1420.61 56.629 1419.1 56.629 1417.58 57.113ZM1426.66 63.4051C1424.39 61.9531 1422.12 61.9531 1420.61 63.4051C1422.88 64.8571 1424.39 64.8571 1426.66 63.4051ZM1437.25 94.8657C1437.25 95.3497 1437.25 95.8337 1437.25 96.3177C1438.76 96.3177 1440.28 96.8017 1441.79 96.8017L1442.55 96.3177C1442.55 95.8337 1441.79 94.8657 1441.03 94.8657C1439.52 94.3817 1438.01 94.8657 1437.25 94.8657ZM193.651 206.672C195.92 204.736 196.677 203.768 192.895 202.8C191.382 204.252 191.382 205.22 193.651 206.672ZM238.281 166.499C236.012 167.951 236.012 169.403 238.281 170.371C240.551 169.403 240.551 167.951 238.281 166.499ZM1353.29 123.422C1355.56 124.874 1357.82 124.874 1359.34 123.422C1357.82 121.97 1355.56 121.97 1353.29 123.422ZM1430.44 121.002C1430.44 121.486 1430.44 121.97 1430.44 122.454C1431.96 122.454 1433.47 122.938 1434.98 122.938L1435.74 122.454C1435.74 121.97 1434.98 121.002 1434.23 121.002C1433.47 120.518 1431.96 121.002 1430.44 121.002ZM1305.63 45.9808C1306.39 46.4648 1306.39 46.4648 1307.14 46.4648C1307.14 45.9808 1307.9 45.4968 1307.9 45.0128L1307.14 44.5288C1306.39 45.0128 1306.39 45.4968 1305.63 45.9808ZM1434.98 45.0128C1434.23 45.0128 1433.47 45.4968 1432.71 45.4968L1433.47 45.9808C1434.23 45.9808 1434.98 45.4968 1435.74 45.4968C1436.5 45.4968 1435.74 45.0128 1434.98 45.0128ZM1352.53 50.3369C1353.29 49.8529 1353.29 49.8529 1354.04 49.8529C1353.29 49.8529 1352.53 49.3689 1351.77 49.3689L1351.02 49.8529C1351.02 49.8529 1351.77 49.8529 1352.53 50.3369ZM748.128 51.7889C748.128 51.3049 747.371 50.8209 746.615 50.3369L745.858 50.8209C745.858 51.3049 746.615 51.7889 746.615 52.2729C747.371 52.2729 747.371 52.2729 748.128 51.7889ZM1383.54 52.2729C1384.3 52.2729 1385.06 51.7889 1385.81 51.7889L1385.06 51.3049C1384.3 51.3049 1383.54 51.7889 1382.79 51.7889C1382.79 51.7889 1382.79 51.7889 1383.54 52.2729ZM1385.06 65.8252C1385.06 65.3411 1384.3 64.8571 1383.54 64.3731L1382.79 64.8571C1382.79 65.3411 1383.54 65.8252 1383.54 66.3092C1384.3 66.3092 1384.3 66.3092 1385.06 65.8252ZM412.265 77.9254C412.265 77.4414 411.508 76.9574 410.752 76.4733L409.995 76.9574C409.995 77.4414 410.752 77.9254 410.752 78.4094C411.508 78.4094 411.508 77.9254 412.265 77.9254ZM350.236 82.7655C349.479 82.7655 348.723 83.2495 347.966 83.2495L348.723 83.7335C349.479 83.7335 350.236 83.2495 350.992 83.2495C350.992 83.2495 350.992 83.2495 350.236 82.7655ZM279.13 90.5096C279.886 90.5096 280.643 90.0256 281.399 90.0256L280.642 89.5416C279.886 89.5416 279.13 90.0256 278.373 90.0256C278.373 90.0256 279.13 90.0256 279.13 90.5096ZM114.224 104.062C114.224 103.578 113.467 103.094 112.711 102.61L111.955 103.094C111.955 103.578 112.711 104.062 112.711 104.546C113.467 104.546 114.224 104.062 114.224 104.062ZM209.536 104.546L208.78 105.03C208.78 105.514 209.536 105.998 209.536 106.482L210.293 105.998C210.293 105.514 209.536 105.03 209.536 104.546ZM164.149 106.966C163.393 107.45 163.393 107.45 162.637 107.45C163.393 107.45 164.149 107.934 164.906 107.934L165.662 107.45C165.662 107.45 164.906 106.966 164.149 106.966ZM118.763 113.742C119.519 114.226 119.519 114.226 120.275 114.226C120.275 113.742 121.032 113.258 121.032 112.774L120.275 112.29C119.519 113.258 118.763 113.258 118.763 113.742ZM105.903 118.098C106.659 118.582 106.659 118.582 107.416 118.582C107.416 118.098 108.172 117.614 108.172 117.13L107.416 116.646C106.659 117.13 105.903 117.614 105.903 118.098ZM1346.48 121.97C1346.48 121.486 1345.72 121.002 1344.97 120.518L1344.21 121.002C1344.21 121.486 1344.97 121.97 1344.97 122.454C1345.72 122.454 1345.72 121.97 1346.48 121.97ZM1337.4 133.586C1337.4 134.07 1338.16 134.554 1338.91 135.038L1339.67 134.554C1339.67 134.07 1338.91 133.586 1338.91 133.102C1338.91 133.102 1338.16 133.102 1337.4 133.586ZM157.341 143.267C157.341 143.751 158.098 144.235 158.854 144.719L159.611 144.235C159.611 143.751 158.854 143.267 158.854 142.783C158.098 142.783 157.341 143.267 157.341 143.267ZM1391.87 146.171C1392.62 146.655 1392.62 146.655 1393.38 146.655C1393.38 146.171 1394.13 145.687 1394.13 145.203L1393.38 144.719C1392.62 145.203 1392.62 145.687 1391.87 146.171ZM232.986 163.595C232.23 163.111 232.23 163.111 231.473 163.111C231.473 163.595 230.717 164.079 230.717 164.563L231.473 165.047C232.23 164.079 232.23 163.595 232.986 163.595ZM177.766 166.499C178.522 166.015 178.522 166.015 179.278 166.015C178.522 166.015 177.766 165.531 177.009 165.531L176.253 166.015C176.253 166.015 177.009 166.015 177.766 166.499ZM1400.94 167.467C1400.19 166.983 1400.19 166.983 1399.43 166.983C1399.43 167.467 1398.67 167.951 1398.67 168.435L1399.43 168.919C1400.19 168.435 1400.19 167.951 1400.94 167.467ZM172.47 169.887L171.714 169.403C170.958 169.403 170.201 169.887 169.445 169.887L170.201 170.371C170.957 170.371 171.714 169.887 172.47 169.887ZM214.831 181.987C215.588 182.471 215.588 182.471 216.344 182.471C216.344 181.987 217.101 181.503 217.101 181.019L216.344 180.535C215.588 181.019 214.831 181.503 214.831 181.987Z" fill="#0077FF" fill-opacity="0.29"/>
<path d="M1512.9 62.4371C1512.9 61.4691 1512.9 60.5011 1512.9 59.5331C1514.41 59.0491 1515.17 59.0491 1517.44 58.5651C1519.7 60.5011 1521.97 61.9531 1524.24 64.3732C1524.24 64.3732 1523.49 64.8572 1522.73 65.8252C1522.73 67.2772 1521.97 68.7292 1521.97 70.6653C1520.46 70.6653 1518.19 71.1493 1517.44 70.6653C1513.65 68.7292 1510.63 66.7932 1506.85 64.3732C1504.58 65.3412 1503.06 65.8252 1500.79 66.7932C1499.28 65.3412 1497.77 63.8892 1496.25 62.9211C1493.99 62.9211 1492.47 62.9211 1490.96 62.9211C1490.96 61.9531 1490.2 60.9851 1490.2 59.5331C1492.47 59.0491 1494.74 58.5651 1496.25 58.0811C1494.74 56.629 1493.99 55.661 1492.47 54.209C1493.99 53.725 1495.5 53.241 1497.77 52.2729C1499.28 53.725 1500.04 55.177 1501.55 56.629C1501.55 56.629 1500.79 57.113 1499.28 58.0811C1501.55 59.0491 1503.82 59.5331 1506.09 60.0171C1509.11 60.5011 1510.63 62.4371 1512.9 62.4371C1513.65 63.4051 1512.9 65.3412 1515.92 63.8892C1515.17 63.4051 1514.41 62.9211 1512.9 62.4371Z" fill="#0077FF" fill-opacity="0.29"/>
<path d="M244.333 10.6481C242.82 11.1321 242.064 12.1001 241.307 12.5841C240.551 12.1001 239.794 11.6161 238.281 10.6481C232.23 10.6481 225.422 10.6481 218.614 10.6481C217.857 11.1321 217.101 11.6161 216.344 12.1001C214.831 11.6161 213.319 11.1321 211.049 10.1641C209.536 10.6481 208.023 11.6161 205.754 12.5841C204.241 12.5841 201.972 12.5841 199.702 12.5841C197.433 11.1321 197.433 10.1641 199.702 8.71203C200.459 9.19604 201.972 10.1641 202.728 10.6481C203.485 9.68005 204.241 9.19604 205.754 8.71203C226.178 8.71203 246.602 8.71203 266.27 8.71203C268.539 7.74402 269.296 7.26001 270.809 6.29199C273.078 7.26001 275.347 7.74402 277.617 8.71203C279.13 8.22803 280.642 7.26001 282.155 6.776C284.425 7.26001 283.668 8.71203 282.912 9.68005C282.155 10.1641 282.155 10.6481 281.399 10.6481C270.052 10.6481 257.193 10.6481 244.333 10.6481Z" fill="#0077FF" fill-opacity="0.29"/>
<path d="M166.418 12.584C166.418 13.068 165.662 13.552 164.906 14.52C152.046 14.52 139.186 14.52 126.327 14.52C125.57 15.004 124.814 15.488 123.301 16.4561C119.519 17.4241 115.736 16.4561 111.198 16.9401C111.198 16.4561 111.954 15.488 112.711 15.488C114.98 15.004 117.249 14.52 121.032 13.068C124.057 13.068 129.353 13.068 134.648 13.068C136.161 12.1 138.43 11.616 139.943 10.6479C142.212 11.616 144.481 12.1 146.751 13.068C148.264 12.584 149.777 11.616 151.29 11.132C152.046 11.616 153.559 12.1 154.315 13.068C158.854 12.584 162.636 12.584 166.418 12.584Z" fill="#0077FF" fill-opacity="0.29"/>
<path d="M1488.69 55.6609C1485.66 57.1129 1483.4 58.0809 1480.37 59.533C1481.88 61.469 1483.4 62.437 1484.91 64.373C1484.91 65.3411 1484.91 66.7931 1484.91 67.7611C1481.88 69.2131 1479.61 71.1492 1477.34 72.6012C1475.83 71.1492 1472.05 70.6651 1472.8 67.7611C1474.32 67.2771 1476.59 66.3091 1478.86 65.8251C1480.37 63.405 1476.59 62.437 1475.07 61.469C1479.61 57.1129 1481.88 55.1769 1485.66 54.6929C1485.66 54.6929 1486.42 55.1769 1488.69 55.6609Z" fill="#0077FF" fill-opacity="0.29"/>
<path d="M1174.01 6.29199C1175.52 6.29199 1177.03 6.29199 1178.55 6.29199C1180.06 5.80798 1180.82 4.83997 1181.57 4.35596C1182.33 4.83997 1183.09 5.32397 1184.6 6.29199C1195.19 6.29199 1205.78 6.29199 1216.37 6.29199C1218.64 7.74402 1218.64 8.71203 1217.13 10.1641C1214.86 10.1641 1212.59 10.1641 1209.56 10.1641C1208.8 9.68005 1208.05 9.19604 1206.54 8.22803C1195.94 8.22803 1185.35 8.22803 1174.01 8.22803C1174.76 7.74402 1174.76 7.26001 1174.01 6.29199Z" fill="#0077FF" fill-opacity="0.29"/>
<path d="M1500.79 98.7378C1504.58 98.7378 1508.36 98.7378 1512.14 98.7378C1513.65 99.7058 1514.41 100.674 1516.68 102.126C1514.41 103.094 1512.14 104.062 1511.38 104.546C1509.87 106.966 1511.38 108.418 1508.36 108.902C1507.6 107.934 1506.85 106.482 1506.09 105.514C1503.82 105.514 1501.55 105.03 1498.52 105.03C1497.01 104.062 1497.01 104.062 1500.79 102.126C1500.79 100.674 1500.79 99.7058 1500.79 98.7378Z" fill="#0077FF" fill-opacity="0.29"/>
<path d="M1241.33 9.68017C1241.33 8.71216 1242.09 7.26013 1242.09 5.80811C1243.6 6.77612 1245.11 7.74414 1245.87 8.22815C1246.63 7.74414 1248.14 6.77612 1248.9 6.29211C1249.65 6.77612 1250.41 7.26013 1251.92 8.22815C1257.22 9.19617 1263.27 7.74414 1270.08 9.19616C1264.78 10.6482 1262.51 11.1322 1241.33 9.68017Z" fill="#0077FF" fill-opacity="0.29"/>
<path d="M1152.07 4.35596C1158.88 4.35596 1165.69 4.35596 1171.74 4.35596C1173.25 4.35596 1174.76 5.32397 1174.01 6.29199C1172.49 6.29199 1170.98 6.29199 1169.47 6.29199C1168.71 6.776 1167.2 7.74402 1166.44 8.22803C1165.69 7.74402 1164.17 7.26001 1162.66 6.29199C1159.64 6.29199 1156.61 6.29199 1152.83 6.29199C1152.07 5.32397 1152.07 4.83997 1152.07 4.35596Z" fill="#0077FF" fill-opacity="0.29"/>
<path d="M46.1434 105.998C42.3612 106.482 41.6047 106.482 39.3354 106.966C38.5789 107.934 37.8225 109.386 36.3096 110.838C34.7967 110.838 34.0402 110.838 33.2838 110.838C30.258 108.902 34.7967 108.902 34.7967 107.45C34.7967 105.998 34.7967 105.03 34.7967 104.062C35.5531 103.578 36.3096 103.578 36.3096 103.094C37.8225 104.546 41.6047 104.546 46.1434 105.998Z" fill="#0077FF" fill-opacity="0.29"/>
<path d="M195.164 11.1322C193.651 12.1002 192.894 12.1002 192.894 12.1002C187.599 12.1002 182.304 12.1002 177.009 12.1002L176.252 11.6162C180.035 10.1642 180.035 10.1642 195.164 11.1322Z" fill="#0077FF" fill-opacity="0.29"/>
<path d="M79.4269 18.3921C76.4011 20.3281 71.106 22.2642 67.3237 21.7801C67.3237 19.8441 70.3495 19.3601 71.106 18.3921C74.1318 18.3921 77.1576 18.3921 79.4269 18.3921Z" fill="#0077FF" fill-opacity="0.29"/>
<path d="M105.146 76.4731C105.146 78.4092 105.146 79.3772 105.146 80.3452C103.633 80.3452 102.121 80.8292 99.8512 80.8292C99.8512 79.3772 99.0947 78.4092 99.0947 76.9572C100.608 76.9572 102.121 76.4731 105.146 76.4731Z" fill="#0077FF" fill-opacity="0.29"/>
<path d="M1407.75 26.1362C1407.75 28.0723 1407.75 29.0403 1407.75 30.0083C1406.24 30.0083 1404.72 30.4923 1402.46 30.4923C1402.46 29.0403 1401.7 28.0723 1401.7 26.6202C1403.21 26.6202 1404.72 26.6202 1407.75 26.1362Z" fill="#0077FF" fill-opacity="0.29"/>
<path d="M79.4272 17.9085C83.2095 15.4884 87.7482 16.4565 92.2869 16.9405C88.5046 19.3605 83.9659 17.9085 79.4272 17.9085Z" fill="#0077FF" fill-opacity="0.29"/>
<path d="M55.2206 103.094C58.2464 103.094 56.7335 105.03 57.49 105.998C58.2464 106.966 59.7593 107.45 62.0286 108.418C59.0029 108.902 56.7335 108.902 55.2206 108.902C53.7077 106.482 53.7077 104.546 55.2206 103.094Z" fill="#0077FF" fill-opacity="0.29"/>
<path d="M1480.37 45.981C1484.15 46.465 1485.66 46.465 1487.93 46.949C1485.66 48.401 1484.15 49.853 1481.13 49.853C1481.88 49.369 1481.13 48.401 1480.37 45.981Z" fill="#0077FF" fill-opacity="0.29"/>
<path d="M1449.36 56.6289C1449.36 57.5969 1449.36 59.0489 1448.6 60.017C1444.82 60.501 1444.82 58.0809 1442.55 58.0809C1444.06 55.6609 1447.09 57.1129 1449.36 56.6289Z" fill="#0077FF" fill-opacity="0.29"/>
<path d="M1449.36 70.6652C1450.11 68.7291 1450.11 67.7611 1450.11 66.3091C1451.62 67.2771 1453.14 67.7611 1453.89 68.7291C1454.65 69.2131 1454.65 69.6971 1455.41 70.1812C1454.65 70.1812 1453.89 70.6652 1453.14 70.6652C1452.38 70.6652 1451.62 70.6652 1449.36 70.6652Z" fill="#0077FF" fill-opacity="0.29"/>
<path d="M18.9111 114.71C18.9111 113.742 18.9111 112.774 18.9111 111.806C20.424 109.87 22.6934 110.838 25.7192 110.354C23.4498 112.774 21.9369 114.226 18.9111 114.71Z" fill="#0077FF" fill-opacity="0.29"/>
<path d="M172.47 208.607C170.958 208.607 169.445 208.607 167.932 208.607C164.906 207.639 165.662 206.187 167.175 204.735C169.445 205.703 171.714 206.671 172.47 208.607Z" fill="#0077FF" fill-opacity="0.29"/>
<path d="M1224.69 7.26022C1226.96 5.80819 1229.23 5.80819 1230.74 6.77621C1229.99 9.19625 1227.72 8.71224 1224.69 7.26022Z" fill="#0077FF" fill-opacity="0.29"/>
<path d="M165.662 12.5841C167.931 10.1641 167.931 10.1641 171.714 11.1321C170.957 13.5522 167.931 12.1001 165.662 12.5841Z" fill="#0077FF" fill-opacity="0.29"/>
<path d="M111.954 16.4563C109.685 18.3923 109.685 18.3923 105.903 17.4243C106.659 15.4882 109.685 16.9403 111.954 16.4563Z" fill="#0077FF" fill-opacity="0.29"/>
<path d="M1422.88 31.9447C1421.37 31.9447 1419.85 32.4287 1418.34 32.4287C1417.58 32.4287 1417.58 31.4607 1416.83 30.9767L1417.58 30.4927C1419.1 30.4927 1420.61 30.4927 1422.12 30.9767C1422.88 31.4607 1422.88 31.4607 1422.88 31.9447Z" fill="#0077FF" fill-opacity="0.29"/>
<path d="M1462.21 65.8249C1464.48 64.3729 1466.75 64.8569 1468.27 65.3409C1466.75 67.277 1464.48 66.793 1462.21 65.8249Z" fill="#0077FF" fill-opacity="0.29"/>
<path d="M97.5819 84.7017C99.8513 86.1537 99.8513 87.6057 97.5819 88.5737C95.3125 87.1217 95.3125 85.6697 97.5819 84.7017Z" fill="#0077FF" fill-opacity="0.29"/>
<path d="M87.7481 88.5737C90.0174 90.0258 90.0174 91.4778 88.5045 92.4458C84.7223 91.4778 85.4787 90.0258 87.7481 88.5737Z" fill="#0077FF" fill-opacity="0.29"/>
<path d="M172.47 201.832C170.201 203.284 167.931 203.284 166.418 201.832C167.931 200.38 170.201 200.38 172.47 201.832Z" fill="#0077FF" fill-opacity="0.29"/>
<path d="M188.356 192.635C188.356 193.603 189.112 194.571 188.356 195.539C187.599 196.023 186.087 196.507 185.33 196.991C185.33 195.539 185.33 194.087 185.33 193.119C186.087 192.635 187.599 192.635 188.356 192.635Z" fill="#0077FF" fill-opacity="0.29"/>
<path d="M137.674 172.791C137.674 171.339 137.674 169.887 137.674 168.919C140.7 168.919 140.7 169.887 140.7 171.339C139.943 172.307 139.187 172.791 137.674 172.791Z" fill="#0077FF" fill-opacity="0.29"/>
<path d="M137.674 168.919C134.648 167.951 134.648 167.951 136.161 165.047C139.187 165.531 136.917 167.467 137.674 168.919Z" fill="#0077FF" fill-opacity="0.29"/>
<path d="M55.9774 152.463C58.2467 153.915 58.2467 155.367 55.9774 156.335C53.7081 155.367 53.7081 153.915 55.9774 152.463Z" fill="#0077FF" fill-opacity="0.29"/>
<path d="M60.5159 149.559C58.2466 151.011 55.9773 151.011 54.4644 149.559C55.9773 148.107 58.2466 148.107 60.5159 149.559Z" fill="#0077FF" fill-opacity="0.29"/>
<path d="M89.2611 143.751C86.9917 145.203 84.7224 145.203 83.2095 143.751C84.7224 142.299 86.9917 142.299 89.2611 143.751Z" fill="#0077FF" fill-opacity="0.29"/>
<path d="M57.4903 114.71C58.2467 113.258 55.9774 111.806 59.0032 110.838C60.5161 113.258 60.5161 113.258 57.4903 114.71Z" fill="#0077FF" fill-opacity="0.29"/>
<path d="M1236.79 6.77588C1237.55 7.25989 1237.55 7.25989 1238.31 7.25989C1237.55 7.25989 1236.79 7.7439 1236.04 7.7439L1235.28 7.25989C1235.28 7.25989 1236.04 6.77588 1236.79 6.77588Z" fill="#0077FF" fill-opacity="0.29"/>
<path d="M1276.13 9.68005C1275.37 10.1641 1275.37 10.1641 1274.62 10.1641C1274.62 9.68005 1273.86 9.19604 1273.86 8.71204L1274.62 8.22803C1275.37 8.71204 1275.37 9.19604 1276.13 9.68005Z" fill="#0077FF" fill-opacity="0.29"/>
<path d="M98.3382 15.004C98.3382 15.488 97.5817 15.972 96.8253 16.4561L96.0688 15.972C96.0688 15.488 96.8253 15.004 96.8253 14.52C97.5817 14.52 98.3382 15.004 98.3382 15.004Z" fill="#0077FF" fill-opacity="0.29"/>
<path d="M24.2065 40.6567C25.7194 39.6887 26.4759 39.2047 27.2323 38.7207C29.5017 40.6567 27.2323 40.1727 24.2065 40.6567Z" fill="#0077FF" fill-opacity="0.29"/>
<path d="M26.4755 40.1729C24.9626 41.1409 24.2062 41.6249 23.4497 42.1089C21.1804 40.6569 23.4497 40.6569 26.4755 40.1729Z" fill="#0077FF" fill-opacity="0.29"/>
<path d="M1478.1 57.1132C1476.59 56.1452 1475.83 55.6612 1475.07 55.1772C1478.1 54.2092 1478.1 55.6612 1478.1 57.1132Z" fill="#0077FF" fill-opacity="0.29"/>
<path d="M55.9774 80.3455C55.2209 80.3455 54.4645 79.8615 53.708 79.8615L54.4645 79.3774C55.2209 79.3774 55.9774 79.8615 56.7338 79.8615C56.7338 79.8615 56.7338 79.8615 55.9774 80.3455Z" fill="#0077FF" fill-opacity="0.29"/>
<path d="M77.1576 89.0576C75.6447 88.0896 74.8883 87.6055 74.1318 87.1215C76.4012 86.1535 76.4012 87.6055 77.1576 89.0576Z" fill="#0077FF" fill-opacity="0.29"/>
<path d="M79.4272 90.5098C77.1578 90.5098 76.4014 90.0258 76.4014 88.5737C78.6707 88.5737 79.4272 89.0577 79.4272 90.5098Z" fill="#0077FF" fill-opacity="0.29"/>
<path d="M79.4272 90.0254C80.9401 90.9934 81.6966 91.4774 82.453 91.9614C80.1837 92.9294 80.1837 91.4774 79.4272 90.0254Z" fill="#0077FF" fill-opacity="0.29"/>
<path d="M1498.52 92.4456C1497.77 91.9615 1497.77 91.9615 1497.01 91.9615C1497.77 91.9615 1498.52 91.4775 1499.28 91.4775L1500.04 91.9615C1500.04 91.9615 1499.28 91.9615 1498.52 92.4456Z" fill="#0077FF" fill-opacity="0.29"/>
<path d="M1500.79 99.2218C1499.28 98.2538 1498.52 97.7698 1497.77 97.2857C1500.04 95.8337 1500.04 97.7697 1500.79 99.2218Z" fill="#0077FF" fill-opacity="0.29"/>
<path d="M77.1577 101.642C77.1577 101.158 77.9142 100.674 78.6706 100.19L79.4271 100.674C79.4271 101.158 78.6706 101.642 78.6706 102.126C77.9142 102.61 77.1577 102.126 77.1577 101.642Z" fill="#0077FF" fill-opacity="0.29"/>
<path d="M84.7221 108.418C84.7221 108.902 85.4786 109.386 85.4786 109.87L84.7221 110.354C84.7221 109.87 83.9657 109.386 83.9657 108.902C83.2092 108.902 83.9657 108.902 84.7221 108.418Z" fill="#0077FF" fill-opacity="0.29"/>
<path d="M3.02579 117.13C1.5129 116.162 0.756448 115.678 0 115.194C3.02579 114.226 2.26935 115.678 3.02579 117.13Z" fill="#0077FF" fill-opacity="0.29"/>
<path d="M19.6675 114.226C18.1546 115.194 17.3982 115.678 16.6417 116.162C15.1288 114.71 17.3982 114.71 19.6675 114.226Z" fill="#0077FF" fill-opacity="0.29"/>
<path d="M2.26953 116.162C3.78243 117.13 4.53888 117.614 5.29532 118.098C3.02598 119.066 3.02598 117.614 2.26953 116.162Z" fill="#0077FF" fill-opacity="0.29"/>
<path d="M96.0688 130.682C95.3123 130.682 93.7994 130.682 93.043 130.682C93.043 130.198 93.7994 129.23 93.7994 129.23C95.3123 128.746 96.0688 129.714 96.0688 130.682Z" fill="#0077FF" fill-opacity="0.29"/>
<path d="M92.2865 130.682C92.2865 132.134 91.5301 132.618 89.2607 132.618C89.2607 131.166 90.0172 130.682 92.2865 130.682Z" fill="#0077FF" fill-opacity="0.29"/>
<path d="M56.7337 136.006C55.9773 136.49 55.9773 136.49 55.2208 136.49C55.2208 136.006 54.4644 135.522 54.4644 135.038L55.2208 134.554C55.9773 135.038 56.7337 135.522 56.7337 136.006Z" fill="#0077FF" fill-opacity="0.29"/>
<path d="M1445.57 144.719C1447.09 143.751 1447.84 143.267 1448.6 142.783C1450.11 144.719 1447.84 144.235 1445.57 144.719Z" fill="#0077FF" fill-opacity="0.29"/>
<path d="M1377.49 146.171C1376.74 146.171 1375.98 145.687 1375.22 145.687L1375.98 145.203C1376.74 145.203 1377.49 145.687 1378.25 145.687C1378.25 145.687 1378.25 146.171 1377.49 146.171Z" fill="#0077FF" fill-opacity="0.29"/>
<path d="M1415.31 144.234C1413.8 145.202 1413.05 145.686 1412.29 146.17C1410.02 144.718 1412.29 144.718 1415.31 144.234Z" fill="#0077FF" fill-opacity="0.29"/>
<path d="M1452.38 160.691C1450.87 160.691 1449.36 160.691 1450.11 159.239C1450.11 158.755 1451.62 158.755 1452.38 158.755C1452.38 159.239 1452.38 160.207 1452.38 160.691Z" fill="#0077FF" fill-opacity="0.29"/>
<path d="M1431.96 182.955C1431.96 183.439 1432.71 183.923 1432.71 184.407L1431.96 184.891C1431.96 184.407 1431.2 183.923 1431.2 183.439C1430.44 183.439 1431.2 182.955 1431.96 182.955Z" fill="#0077FF" fill-opacity="0.29"/>
<path d="M172.47 208.124C173.983 209.092 174.74 209.576 175.496 210.06C172.47 211.512 172.47 209.576 172.47 208.124Z" fill="#0077FF" fill-opacity="0.29"/>
<path d="M211.806 165.047C212.562 165.047 213.319 165.531 214.075 165.531L213.319 166.015C212.562 166.015 211.806 165.531 211.049 165.531L211.806 165.047Z" fill="#0077FF" fill-opacity="0.29"/>
</svg>
